M48
; DRILL file {KiCad (6.0.6)} date pon, 11 lip 2022, 15:06:06
; FORMAT={-:-/ absolute / metric / decimal}
; #@! TF.CreationDate,2022-07-11T15:06:06+02:00
; #@! TF.GenerationSoftware,Kicad,Pcbnew,(6.0.6)
; #@! TF.FileFunction,Plated,1,2,PTH
FMAT,2
METRIC
; #@! TA.AperFunction,Plated,PTH,ViaDrill
T1C0.400
; #@! TA.AperFunction,Plated,PTH,ComponentDrill
T2C0.750
; #@! TA.AperFunction,Plated,PTH,ComponentDrill
T3C0.800
; #@! TA.AperFunction,Plated,PTH,ComponentDrill
T4C1.000
; #@! TA.AperFunction,Plated,PTH,ComponentDrill
T5C1.190
%
G90
G05
T1
X124.086Y-53.88
X125.109Y-59.831
X146.526Y-68.685
X157.875Y-90.348
X161.016Y-52.392
X161.26Y-54.764
T2
X120.066Y-57.18
X121.336Y-57.18
X122.606Y-57.18
T3
X105.226Y-55.747
X105.226Y-58.547
X107.326Y-55.747
X109.926Y-55.747
X112.026Y-55.747
X112.026Y-58.547
X112.446Y-62.916
X120.066Y-62.916
X122.666Y-62.408
X130.166Y-62.408
X134.29Y-53.264
X134.29Y-79.68
X134.29Y-83.236
X134.29Y-86.792
X134.29Y-90.348
X137.592Y-56.566
X137.592Y-64.186
X141.148Y-56.352
X141.148Y-61.352
X141.91Y-53.264
X141.91Y-79.68
X141.91Y-83.236
X141.91Y-86.792
X141.91Y-90.348
X144.704Y-53.01
X144.704Y-60.63
X144.704Y-63.23
X144.704Y-70.73
X148.26Y-53.01
X148.26Y-60.63
X148.26Y-63.17
X148.26Y-70.79
X151.816Y-53.01
X151.816Y-60.63
X152.324Y-73.116
X152.324Y-78.116
T4
X118.796Y-49.2
X121.336Y-49.2
X123.876Y-49.2
X126.416Y-49.2
X127.94Y-97.46
X128.956Y-49.2
X130.48Y-97.46
X131.496Y-49.2
X133.02Y-97.46
X134.036Y-49.2
X135.56Y-97.46
X136.576Y-49.2
X138.1Y-97.46
X139.116Y-49.2
X140.64Y-97.46
X141.656Y-49.2
X143.18Y-97.46
X145.72Y-49.2
X145.72Y-97.46
X148.26Y-49.2
X150.8Y-49.2
X150.8Y-97.46
X153.34Y-49.2
X153.34Y-97.46
X155.88Y-49.2
X155.88Y-97.46
X158.42Y-49.2
X158.42Y-97.46
X160.96Y-49.2
X160.96Y-97.46
X163.5Y-49.2
X163.5Y-97.46
T5
X127.178Y-55.824
X129.718Y-55.824
T3
X156.25Y-73.78G85X155.75Y-73.78
G05
X156.25Y-78.38G85X155.75Y-78.38
G05
X156.25Y-81.4G85X155.75Y-81.4
G05
X156.25Y-86.0G85X155.75Y-86.0
G05
T4
X101.776Y-53.647G85X101.776Y-52.147
G05
X109.626Y-52.097G85X107.626Y-52.097
G05
X115.476Y-53.647G85X115.476Y-52.147
G05
X163.65Y-73.33G85X163.35Y-73.33
G05
X163.65Y-78.83G85X163.35Y-78.83
G05
X163.65Y-80.95G85X163.35Y-80.95
G05
X163.65Y-86.45G85X163.35Y-86.45
G05
T0
M30
