%TF.GenerationSoftware,KiCad,Pcbnew,(6.0.6)*%
%TF.CreationDate,2022-07-11T15:05:09+02:00*%
%TF.ProjectId,ZXSpectrumFPGAShield,5a585370-6563-4747-9275-6d4650474153,rev?*%
%TF.SameCoordinates,Original*%
%TF.FileFunction,Legend,Top*%
%TF.FilePolarity,Positive*%
%FSLAX46Y46*%
G04 Gerber Fmt 4.6, Leading zero omitted, Abs format (unit mm)*
G04 Created by KiCad (PCBNEW (6.0.6)) date 2022-07-11 15:05:09*
%MOMM*%
%LPD*%
G01*
G04 APERTURE LIST*
G04 Aperture macros list*
%AMRoundRect*
0 Rectangle with rounded corners*
0 $1 Rounding radius*
0 $2 $3 $4 $5 $6 $7 $8 $9 X,Y pos of 4 corners*
0 Add a 4 corners polygon primitive as box body*
4,1,4,$2,$3,$4,$5,$6,$7,$8,$9,$2,$3,0*
0 Add four circle primitives for the rounded corners*
1,1,$1+$1,$2,$3*
1,1,$1+$1,$4,$5*
1,1,$1+$1,$6,$7*
1,1,$1+$1,$8,$9*
0 Add four rect primitives between the rounded corners*
20,1,$1+$1,$2,$3,$4,$5,0*
20,1,$1+$1,$4,$5,$6,$7,0*
20,1,$1+$1,$6,$7,$8,$9,0*
20,1,$1+$1,$8,$9,$2,$3,0*%
G04 Aperture macros list end*
%ADD10C,0.150000*%
%ADD11C,0.120000*%
%ADD12C,1.600000*%
%ADD13O,1.600000X1.600000*%
%ADD14R,1.700000X1.700000*%
%ADD15O,1.700000X1.700000*%
%ADD16RoundRect,0.250000X-0.620000X-0.845000X0.620000X-0.845000X0.620000X0.845000X-0.620000X0.845000X0*%
%ADD17O,1.740000X2.190000*%
%ADD18R,1.600000X1.600000*%
%ADD19O,2.000000X3.500000*%
%ADD20O,4.000000X2.000000*%
%ADD21C,1.100000*%
%ADD22O,2.300000X1.800000*%
%ADD23O,2.300000X2.000000*%
%ADD24R,1.050000X1.500000*%
%ADD25O,1.050000X1.500000*%
%ADD26C,3.200000*%
G04 APERTURE END LIST*
D10*
%TO.C,R10*%
X138044380Y-61018857D02*
X137568190Y-61352190D01*
X138044380Y-61590285D02*
X137044380Y-61590285D01*
X137044380Y-61209333D01*
X137092000Y-61114095D01*
X137139619Y-61066476D01*
X137234857Y-61018857D01*
X137377714Y-61018857D01*
X137472952Y-61066476D01*
X137520571Y-61114095D01*
X137568190Y-61209333D01*
X137568190Y-61590285D01*
X138044380Y-60066476D02*
X138044380Y-60637904D01*
X138044380Y-60352190D02*
X137044380Y-60352190D01*
X137187238Y-60447428D01*
X137282476Y-60542666D01*
X137330095Y-60637904D01*
X137044380Y-59447428D02*
X137044380Y-59352190D01*
X137092000Y-59256952D01*
X137139619Y-59209333D01*
X137234857Y-59161714D01*
X137425333Y-59114095D01*
X137663428Y-59114095D01*
X137853904Y-59161714D01*
X137949142Y-59209333D01*
X137996761Y-59256952D01*
X138044380Y-59352190D01*
X138044380Y-59447428D01*
X137996761Y-59542666D01*
X137949142Y-59590285D01*
X137853904Y-59637904D01*
X137663428Y-59685523D01*
X137425333Y-59685523D01*
X137234857Y-59637904D01*
X137139619Y-59590285D01*
X137092000Y-59542666D01*
X137044380Y-59447428D01*
%TO.C,R9*%
X137933333Y-83688380D02*
X137600000Y-83212190D01*
X137361904Y-83688380D02*
X137361904Y-82688380D01*
X137742857Y-82688380D01*
X137838095Y-82736000D01*
X137885714Y-82783619D01*
X137933333Y-82878857D01*
X137933333Y-83021714D01*
X137885714Y-83116952D01*
X137838095Y-83164571D01*
X137742857Y-83212190D01*
X137361904Y-83212190D01*
X138409523Y-83688380D02*
X138600000Y-83688380D01*
X138695238Y-83640761D01*
X138742857Y-83593142D01*
X138838095Y-83450285D01*
X138885714Y-83259809D01*
X138885714Y-82878857D01*
X138838095Y-82783619D01*
X138790476Y-82736000D01*
X138695238Y-82688380D01*
X138504761Y-82688380D01*
X138409523Y-82736000D01*
X138361904Y-82783619D01*
X138314285Y-82878857D01*
X138314285Y-83116952D01*
X138361904Y-83212190D01*
X138409523Y-83259809D01*
X138504761Y-83307428D01*
X138695238Y-83307428D01*
X138790476Y-83259809D01*
X138838095Y-83212190D01*
X138885714Y-83116952D01*
%TO.C,R8*%
X137933333Y-80132380D02*
X137600000Y-79656190D01*
X137361904Y-80132380D02*
X137361904Y-79132380D01*
X137742857Y-79132380D01*
X137838095Y-79180000D01*
X137885714Y-79227619D01*
X137933333Y-79322857D01*
X137933333Y-79465714D01*
X137885714Y-79560952D01*
X137838095Y-79608571D01*
X137742857Y-79656190D01*
X137361904Y-79656190D01*
X138504761Y-79560952D02*
X138409523Y-79513333D01*
X138361904Y-79465714D01*
X138314285Y-79370476D01*
X138314285Y-79322857D01*
X138361904Y-79227619D01*
X138409523Y-79180000D01*
X138504761Y-79132380D01*
X138695238Y-79132380D01*
X138790476Y-79180000D01*
X138838095Y-79227619D01*
X138885714Y-79322857D01*
X138885714Y-79370476D01*
X138838095Y-79465714D01*
X138790476Y-79513333D01*
X138695238Y-79560952D01*
X138504761Y-79560952D01*
X138409523Y-79608571D01*
X138361904Y-79656190D01*
X138314285Y-79751428D01*
X138314285Y-79941904D01*
X138361904Y-80037142D01*
X138409523Y-80084761D01*
X138504761Y-80132380D01*
X138695238Y-80132380D01*
X138790476Y-80084761D01*
X138838095Y-80037142D01*
X138885714Y-79941904D01*
X138885714Y-79751428D01*
X138838095Y-79656190D01*
X138790476Y-79608571D01*
X138695238Y-79560952D01*
%TO.C,R1*%
X116089333Y-63368380D02*
X115756000Y-62892190D01*
X115517904Y-63368380D02*
X115517904Y-62368380D01*
X115898857Y-62368380D01*
X115994095Y-62416000D01*
X116041714Y-62463619D01*
X116089333Y-62558857D01*
X116089333Y-62701714D01*
X116041714Y-62796952D01*
X115994095Y-62844571D01*
X115898857Y-62892190D01*
X115517904Y-62892190D01*
X117041714Y-63368380D02*
X116470285Y-63368380D01*
X116756000Y-63368380D02*
X116756000Y-62368380D01*
X116660761Y-62511238D01*
X116565523Y-62606476D01*
X116470285Y-62654095D01*
%TO.C,LS1*%
X127805142Y-52156380D02*
X127328952Y-52156380D01*
X127328952Y-51156380D01*
X128090857Y-52108761D02*
X128233714Y-52156380D01*
X128471809Y-52156380D01*
X128567047Y-52108761D01*
X128614666Y-52061142D01*
X128662285Y-51965904D01*
X128662285Y-51870666D01*
X128614666Y-51775428D01*
X128567047Y-51727809D01*
X128471809Y-51680190D01*
X128281333Y-51632571D01*
X128186095Y-51584952D01*
X128138476Y-51537333D01*
X128090857Y-51442095D01*
X128090857Y-51346857D01*
X128138476Y-51251619D01*
X128186095Y-51204000D01*
X128281333Y-51156380D01*
X128519428Y-51156380D01*
X128662285Y-51204000D01*
X129614666Y-52156380D02*
X129043238Y-52156380D01*
X129328952Y-52156380D02*
X129328952Y-51156380D01*
X129233714Y-51299238D01*
X129138476Y-51394476D01*
X129043238Y-51442095D01*
%TO.C,R4*%
X137933333Y-90800380D02*
X137600000Y-90324190D01*
X137361904Y-90800380D02*
X137361904Y-89800380D01*
X137742857Y-89800380D01*
X137838095Y-89848000D01*
X137885714Y-89895619D01*
X137933333Y-89990857D01*
X137933333Y-90133714D01*
X137885714Y-90228952D01*
X137838095Y-90276571D01*
X137742857Y-90324190D01*
X137361904Y-90324190D01*
X138790476Y-90133714D02*
X138790476Y-90800380D01*
X138552380Y-89752761D02*
X138314285Y-90467047D01*
X138933333Y-90467047D01*
%TO.C,R6*%
X148712380Y-56986666D02*
X148236190Y-57320000D01*
X148712380Y-57558095D02*
X147712380Y-57558095D01*
X147712380Y-57177142D01*
X147760000Y-57081904D01*
X147807619Y-57034285D01*
X147902857Y-56986666D01*
X148045714Y-56986666D01*
X148140952Y-57034285D01*
X148188571Y-57081904D01*
X148236190Y-57177142D01*
X148236190Y-57558095D01*
X147712380Y-56129523D02*
X147712380Y-56320000D01*
X147760000Y-56415238D01*
X147807619Y-56462857D01*
X147950476Y-56558095D01*
X148140952Y-56605714D01*
X148521904Y-56605714D01*
X148617142Y-56558095D01*
X148664761Y-56510476D01*
X148712380Y-56415238D01*
X148712380Y-56224761D01*
X148664761Y-56129523D01*
X148617142Y-56081904D01*
X148521904Y-56034285D01*
X148283809Y-56034285D01*
X148188571Y-56081904D01*
X148140952Y-56129523D01*
X148093333Y-56224761D01*
X148093333Y-56415238D01*
X148140952Y-56510476D01*
X148188571Y-56558095D01*
X148283809Y-56605714D01*
%TO.C,C1*%
X126249333Y-62765142D02*
X126201714Y-62812761D01*
X126058857Y-62860380D01*
X125963619Y-62860380D01*
X125820761Y-62812761D01*
X125725523Y-62717523D01*
X125677904Y-62622285D01*
X125630285Y-62431809D01*
X125630285Y-62288952D01*
X125677904Y-62098476D01*
X125725523Y-62003238D01*
X125820761Y-61908000D01*
X125963619Y-61860380D01*
X126058857Y-61860380D01*
X126201714Y-61908000D01*
X126249333Y-61955619D01*
X127201714Y-62860380D02*
X126630285Y-62860380D01*
X126916000Y-62860380D02*
X126916000Y-61860380D01*
X126820761Y-62003238D01*
X126725523Y-62098476D01*
X126630285Y-62146095D01*
%TO.C,J8*%
X104238666Y-51192380D02*
X104238666Y-51906666D01*
X104191047Y-52049523D01*
X104095809Y-52144761D01*
X103952952Y-52192380D01*
X103857714Y-52192380D01*
X104857714Y-51620952D02*
X104762476Y-51573333D01*
X104714857Y-51525714D01*
X104667238Y-51430476D01*
X104667238Y-51382857D01*
X104714857Y-51287619D01*
X104762476Y-51240000D01*
X104857714Y-51192380D01*
X105048190Y-51192380D01*
X105143428Y-51240000D01*
X105191047Y-51287619D01*
X105238666Y-51382857D01*
X105238666Y-51430476D01*
X105191047Y-51525714D01*
X105143428Y-51573333D01*
X105048190Y-51620952D01*
X104857714Y-51620952D01*
X104762476Y-51668571D01*
X104714857Y-51716190D01*
X104667238Y-51811428D01*
X104667238Y-52001904D01*
X104714857Y-52097142D01*
X104762476Y-52144761D01*
X104857714Y-52192380D01*
X105048190Y-52192380D01*
X105143428Y-52144761D01*
X105191047Y-52097142D01*
X105238666Y-52001904D01*
X105238666Y-51811428D01*
X105191047Y-51716190D01*
X105143428Y-51668571D01*
X105048190Y-51620952D01*
%TO.C,J6*%
X167095619Y-75282666D02*
X166381333Y-75282666D01*
X166238476Y-75235047D01*
X166143238Y-75139809D01*
X166095619Y-74996952D01*
X166095619Y-74901714D01*
X167095619Y-76187428D02*
X167095619Y-75996952D01*
X167048000Y-75901714D01*
X167000380Y-75854095D01*
X166857523Y-75758857D01*
X166667047Y-75711238D01*
X166286095Y-75711238D01*
X166190857Y-75758857D01*
X166143238Y-75806476D01*
X166095619Y-75901714D01*
X166095619Y-76092190D01*
X166143238Y-76187428D01*
X166190857Y-76235047D01*
X166286095Y-76282666D01*
X166524190Y-76282666D01*
X166619428Y-76235047D01*
X166667047Y-76187428D01*
X166714666Y-76092190D01*
X166714666Y-75901714D01*
X166667047Y-75806476D01*
X166619428Y-75758857D01*
X166524190Y-75711238D01*
%TO.C,R7*%
X145156380Y-56986666D02*
X144680190Y-57320000D01*
X145156380Y-57558095D02*
X144156380Y-57558095D01*
X144156380Y-57177142D01*
X144204000Y-57081904D01*
X144251619Y-57034285D01*
X144346857Y-56986666D01*
X144489714Y-56986666D01*
X144584952Y-57034285D01*
X144632571Y-57081904D01*
X144680190Y-57177142D01*
X144680190Y-57558095D01*
X144156380Y-56653333D02*
X144156380Y-55986666D01*
X145156380Y-56415238D01*
%TO.C,C2*%
X141505142Y-59018666D02*
X141552761Y-59066285D01*
X141600380Y-59209142D01*
X141600380Y-59304380D01*
X141552761Y-59447238D01*
X141457523Y-59542476D01*
X141362285Y-59590095D01*
X141171809Y-59637714D01*
X141028952Y-59637714D01*
X140838476Y-59590095D01*
X140743238Y-59542476D01*
X140648000Y-59447238D01*
X140600380Y-59304380D01*
X140600380Y-59209142D01*
X140648000Y-59066285D01*
X140695619Y-59018666D01*
X140695619Y-58637714D02*
X140648000Y-58590095D01*
X140600380Y-58494857D01*
X140600380Y-58256761D01*
X140648000Y-58161523D01*
X140695619Y-58113904D01*
X140790857Y-58066285D01*
X140886095Y-58066285D01*
X141028952Y-58113904D01*
X141600380Y-58685333D01*
X141600380Y-58066285D01*
%TO.C,D1*%
X137361904Y-53716380D02*
X137361904Y-52716380D01*
X137600000Y-52716380D01*
X137742857Y-52764000D01*
X137838095Y-52859238D01*
X137885714Y-52954476D01*
X137933333Y-53144952D01*
X137933333Y-53287809D01*
X137885714Y-53478285D01*
X137838095Y-53573523D01*
X137742857Y-53668761D01*
X137600000Y-53716380D01*
X137361904Y-53716380D01*
X138885714Y-53716380D02*
X138314285Y-53716380D01*
X138600000Y-53716380D02*
X138600000Y-52716380D01*
X138504761Y-52859238D01*
X138409523Y-52954476D01*
X138314285Y-53002095D01*
X134028095Y-51916380D02*
X134028095Y-50916380D01*
X134599523Y-51916380D02*
X134170952Y-51344952D01*
X134599523Y-50916380D02*
X134028095Y-51487809D01*
%TO.C,Q1*%
X121240761Y-55843619D02*
X121145523Y-55796000D01*
X121050285Y-55700761D01*
X120907428Y-55557904D01*
X120812190Y-55510285D01*
X120716952Y-55510285D01*
X120764571Y-55748380D02*
X120669333Y-55700761D01*
X120574095Y-55605523D01*
X120526476Y-55415047D01*
X120526476Y-55081714D01*
X120574095Y-54891238D01*
X120669333Y-54796000D01*
X120764571Y-54748380D01*
X120955047Y-54748380D01*
X121050285Y-54796000D01*
X121145523Y-54891238D01*
X121193142Y-55081714D01*
X121193142Y-55415047D01*
X121145523Y-55605523D01*
X121050285Y-55700761D01*
X120955047Y-55748380D01*
X120764571Y-55748380D01*
X122145523Y-55748380D02*
X121574095Y-55748380D01*
X121859809Y-55748380D02*
X121859809Y-54748380D01*
X121764571Y-54891238D01*
X121669333Y-54986476D01*
X121574095Y-55034095D01*
%TO.C,R2*%
X137933333Y-87244380D02*
X137600000Y-86768190D01*
X137361904Y-87244380D02*
X137361904Y-86244380D01*
X137742857Y-86244380D01*
X137838095Y-86292000D01*
X137885714Y-86339619D01*
X137933333Y-86434857D01*
X137933333Y-86577714D01*
X137885714Y-86672952D01*
X137838095Y-86720571D01*
X137742857Y-86768190D01*
X137361904Y-86768190D01*
X138314285Y-86339619D02*
X138361904Y-86292000D01*
X138457142Y-86244380D01*
X138695238Y-86244380D01*
X138790476Y-86292000D01*
X138838095Y-86339619D01*
X138885714Y-86434857D01*
X138885714Y-86530095D01*
X138838095Y-86672952D01*
X138266666Y-87244380D01*
X138885714Y-87244380D01*
%TO.C,R5*%
X148712380Y-67146666D02*
X148236190Y-67480000D01*
X148712380Y-67718095D02*
X147712380Y-67718095D01*
X147712380Y-67337142D01*
X147760000Y-67241904D01*
X147807619Y-67194285D01*
X147902857Y-67146666D01*
X148045714Y-67146666D01*
X148140952Y-67194285D01*
X148188571Y-67241904D01*
X148236190Y-67337142D01*
X148236190Y-67718095D01*
X147712380Y-66241904D02*
X147712380Y-66718095D01*
X148188571Y-66765714D01*
X148140952Y-66718095D01*
X148093333Y-66622857D01*
X148093333Y-66384761D01*
X148140952Y-66289523D01*
X148188571Y-66241904D01*
X148283809Y-66194285D01*
X148521904Y-66194285D01*
X148617142Y-66241904D01*
X148664761Y-66289523D01*
X148712380Y-66384761D01*
X148712380Y-66622857D01*
X148664761Y-66718095D01*
X148617142Y-66765714D01*
%TO.C,C3*%
X152681142Y-75782666D02*
X152728761Y-75830285D01*
X152776380Y-75973142D01*
X152776380Y-76068380D01*
X152728761Y-76211238D01*
X152633523Y-76306476D01*
X152538285Y-76354095D01*
X152347809Y-76401714D01*
X152204952Y-76401714D01*
X152014476Y-76354095D01*
X151919238Y-76306476D01*
X151824000Y-76211238D01*
X151776380Y-76068380D01*
X151776380Y-75973142D01*
X151824000Y-75830285D01*
X151871619Y-75782666D01*
X151776380Y-75449333D02*
X151776380Y-74830285D01*
X152157333Y-75163619D01*
X152157333Y-75020761D01*
X152204952Y-74925523D01*
X152252571Y-74877904D01*
X152347809Y-74830285D01*
X152585904Y-74830285D01*
X152681142Y-74877904D01*
X152728761Y-74925523D01*
X152776380Y-75020761D01*
X152776380Y-75306476D01*
X152728761Y-75401714D01*
X152681142Y-75449333D01*
%TO.C,C4*%
X145061142Y-67146666D02*
X145108761Y-67194285D01*
X145156380Y-67337142D01*
X145156380Y-67432380D01*
X145108761Y-67575238D01*
X145013523Y-67670476D01*
X144918285Y-67718095D01*
X144727809Y-67765714D01*
X144584952Y-67765714D01*
X144394476Y-67718095D01*
X144299238Y-67670476D01*
X144204000Y-67575238D01*
X144156380Y-67432380D01*
X144156380Y-67337142D01*
X144204000Y-67194285D01*
X144251619Y-67146666D01*
X144489714Y-66289523D02*
X145156380Y-66289523D01*
X144108761Y-66527619D02*
X144823047Y-66765714D01*
X144823047Y-66146666D01*
%TO.C,J5*%
X167095619Y-83410666D02*
X166381333Y-83410666D01*
X166238476Y-83363047D01*
X166143238Y-83267809D01*
X166095619Y-83124952D01*
X166095619Y-83029714D01*
X167095619Y-84363047D02*
X167095619Y-83886857D01*
X166619428Y-83839238D01*
X166667047Y-83886857D01*
X166714666Y-83982095D01*
X166714666Y-84220190D01*
X166667047Y-84315428D01*
X166619428Y-84363047D01*
X166524190Y-84410666D01*
X166286095Y-84410666D01*
X166190857Y-84363047D01*
X166143238Y-84315428D01*
X166095619Y-84220190D01*
X166095619Y-83982095D01*
X166143238Y-83886857D01*
X166190857Y-83839238D01*
%TO.C,R3*%
X152268380Y-56986666D02*
X151792190Y-57320000D01*
X152268380Y-57558095D02*
X151268380Y-57558095D01*
X151268380Y-57177142D01*
X151316000Y-57081904D01*
X151363619Y-57034285D01*
X151458857Y-56986666D01*
X151601714Y-56986666D01*
X151696952Y-57034285D01*
X151744571Y-57081904D01*
X151792190Y-57177142D01*
X151792190Y-57558095D01*
X151268380Y-56653333D02*
X151268380Y-56034285D01*
X151649333Y-56367619D01*
X151649333Y-56224761D01*
X151696952Y-56129523D01*
X151744571Y-56081904D01*
X151839809Y-56034285D01*
X152077904Y-56034285D01*
X152173142Y-56081904D01*
X152220761Y-56129523D01*
X152268380Y-56224761D01*
X152268380Y-56510476D01*
X152220761Y-56605714D01*
X152173142Y-56653333D01*
D11*
%TO.C,R10*%
X138962000Y-57106000D02*
X138632000Y-57106000D01*
X136222000Y-63646000D02*
X136222000Y-57106000D01*
X138962000Y-63646000D02*
X138962000Y-57106000D01*
X138632000Y-63646000D02*
X138962000Y-63646000D01*
X136552000Y-63646000D02*
X136222000Y-63646000D01*
X136222000Y-57106000D02*
X136552000Y-57106000D01*
%TO.C,R9*%
X141370000Y-84606000D02*
X141370000Y-84276000D01*
X134830000Y-81866000D02*
X141370000Y-81866000D01*
X134830000Y-84606000D02*
X141370000Y-84606000D01*
X134830000Y-84276000D02*
X134830000Y-84606000D01*
X134830000Y-82196000D02*
X134830000Y-81866000D01*
X141370000Y-81866000D02*
X141370000Y-82196000D01*
%TO.C,R8*%
X141370000Y-81050000D02*
X141370000Y-80720000D01*
X134830000Y-78310000D02*
X141370000Y-78310000D01*
X134830000Y-81050000D02*
X141370000Y-81050000D01*
X134830000Y-80720000D02*
X134830000Y-81050000D01*
X134830000Y-78640000D02*
X134830000Y-78310000D01*
X141370000Y-78310000D02*
X141370000Y-78640000D01*
%TO.C,J1*%
X147050000Y-98790000D02*
X147050000Y-96130000D01*
X129210000Y-96130000D02*
X147050000Y-96130000D01*
X129210000Y-98790000D02*
X129210000Y-96130000D01*
X126610000Y-97460000D02*
X126610000Y-96130000D01*
X126610000Y-96130000D02*
X127940000Y-96130000D01*
X129210000Y-98790000D02*
X147050000Y-98790000D01*
%TO.C,J3*%
X152070000Y-96130000D02*
X164830000Y-96130000D01*
X149470000Y-97460000D02*
X149470000Y-96130000D01*
X152070000Y-98790000D02*
X152070000Y-96130000D01*
X152070000Y-98790000D02*
X164830000Y-98790000D01*
X164830000Y-98790000D02*
X164830000Y-96130000D01*
X149470000Y-96130000D02*
X150800000Y-96130000D01*
%TO.C,J2*%
X142986000Y-50530000D02*
X142986000Y-47870000D01*
X120066000Y-50530000D02*
X142986000Y-50530000D01*
X117466000Y-47870000D02*
X118796000Y-47870000D01*
X117466000Y-49200000D02*
X117466000Y-47870000D01*
X120066000Y-47870000D02*
X142986000Y-47870000D01*
X120066000Y-50530000D02*
X120066000Y-47870000D01*
%TO.C,J4*%
X164830000Y-50530000D02*
X164830000Y-47870000D01*
X146990000Y-50530000D02*
X164830000Y-50530000D01*
X144390000Y-49200000D02*
X144390000Y-47870000D01*
X146990000Y-50530000D02*
X146990000Y-47870000D01*
X144390000Y-47870000D02*
X145720000Y-47870000D01*
X146990000Y-47870000D02*
X164830000Y-47870000D01*
%TO.C,R1*%
X112986000Y-63956000D02*
X112986000Y-64286000D01*
X112986000Y-64286000D02*
X119526000Y-64286000D01*
X112986000Y-61546000D02*
X119526000Y-61546000D01*
X119526000Y-64286000D02*
X119526000Y-63956000D01*
X119526000Y-61546000D02*
X119526000Y-61876000D01*
X112986000Y-61876000D02*
X112986000Y-61546000D01*
%TO.C,LS1*%
X127978000Y-53394000D02*
X127978000Y-52794000D01*
X127428000Y-57284000D02*
X129468000Y-57284000D01*
X129718000Y-57814000D02*
X129718000Y-58814000D01*
X130518000Y-53394000D02*
X130518000Y-52794000D01*
X131098000Y-52794000D02*
X125798000Y-52794000D01*
X129468000Y-57284000D02*
X129718000Y-57814000D01*
X125798000Y-52794000D02*
X125798000Y-58814000D01*
X126378000Y-53394000D02*
X127978000Y-53394000D01*
X125798000Y-58814000D02*
X131098000Y-58814000D01*
X127178000Y-57814000D02*
X129718000Y-57814000D01*
X131098000Y-58814000D02*
X131098000Y-52794000D01*
X127178000Y-57814000D02*
X127428000Y-57284000D01*
X126378000Y-52794000D02*
X126378000Y-53394000D01*
X128918000Y-52794000D02*
X128918000Y-53394000D01*
X127428000Y-58814000D02*
X127428000Y-57814000D01*
X125508000Y-53824000D02*
X125508000Y-57824000D01*
X129468000Y-58814000D02*
X129468000Y-57814000D01*
X128918000Y-53394000D02*
X130518000Y-53394000D01*
X127178000Y-58814000D02*
X127178000Y-57814000D01*
%TO.C,R4*%
X141370000Y-91718000D02*
X141370000Y-91388000D01*
X134830000Y-89308000D02*
X134830000Y-88978000D01*
X141370000Y-88978000D02*
X141370000Y-89308000D01*
X134830000Y-91388000D02*
X134830000Y-91718000D01*
X134830000Y-88978000D02*
X141370000Y-88978000D01*
X134830000Y-91718000D02*
X141370000Y-91718000D01*
%TO.C,R6*%
X149630000Y-53550000D02*
X149300000Y-53550000D01*
X149300000Y-60090000D02*
X149630000Y-60090000D01*
X147220000Y-60090000D02*
X146890000Y-60090000D01*
X149630000Y-60090000D02*
X149630000Y-53550000D01*
X146890000Y-53550000D02*
X147220000Y-53550000D01*
X146890000Y-60090000D02*
X146890000Y-53550000D01*
%TO.C,C1*%
X124396000Y-63828000D02*
X128436000Y-63828000D01*
X124396000Y-60988000D02*
X124396000Y-63828000D01*
X128436000Y-60988000D02*
X124396000Y-60988000D01*
X128436000Y-63828000D02*
X128436000Y-60988000D01*
X123706000Y-62408000D02*
X124396000Y-62408000D01*
X129126000Y-62408000D02*
X128436000Y-62408000D01*
%TO.C,J8*%
X116726000Y-60147000D02*
X116726000Y-47147000D01*
X116726000Y-47147000D02*
X100526000Y-47147000D01*
X116726000Y-60147000D02*
X100526000Y-60147000D01*
X100526000Y-60147000D02*
X100526000Y-47147000D01*
%TO.C,J6*%
X167100000Y-78680000D02*
X167100000Y-79430000D01*
X169600000Y-73480000D02*
X169600000Y-78680000D01*
X167100000Y-79430000D02*
X164650000Y-79430000D01*
X167100000Y-73480000D02*
X167100000Y-72730000D01*
X162350000Y-72730000D02*
X155400000Y-72730000D01*
X169600000Y-73480000D02*
X167100000Y-73480000D01*
X155400000Y-75030000D02*
X155400000Y-77130000D01*
X169600000Y-78680000D02*
X167100000Y-78680000D01*
X167100000Y-72730000D02*
X164650000Y-72730000D01*
X162350000Y-79430000D02*
X155400000Y-79430000D01*
%TO.C,R7*%
X143334000Y-60090000D02*
X143334000Y-53550000D01*
X146074000Y-53550000D02*
X145744000Y-53550000D01*
X146074000Y-60090000D02*
X146074000Y-53550000D01*
X143334000Y-53550000D02*
X143664000Y-53550000D01*
X145744000Y-60090000D02*
X146074000Y-60090000D01*
X143664000Y-60090000D02*
X143334000Y-60090000D01*
%TO.C,C2*%
X140028000Y-62472000D02*
X140028000Y-55232000D01*
X142268000Y-62472000D02*
X142268000Y-55232000D01*
X140028000Y-55232000D02*
X142268000Y-55232000D01*
X140028000Y-62472000D02*
X142268000Y-62472000D01*
%TO.C,D1*%
X135330000Y-53264000D02*
X135980000Y-53264000D01*
X136820000Y-52144000D02*
X136820000Y-54384000D01*
X136700000Y-52144000D02*
X136700000Y-54384000D01*
X140220000Y-52144000D02*
X135980000Y-52144000D01*
X135980000Y-54384000D02*
X140220000Y-54384000D01*
X136580000Y-52144000D02*
X136580000Y-54384000D01*
X140220000Y-54384000D02*
X140220000Y-52144000D01*
X140870000Y-53264000D02*
X140220000Y-53264000D01*
X135980000Y-52144000D02*
X135980000Y-54384000D01*
%TO.C,Q1*%
X119536000Y-59030000D02*
X123136000Y-59030000D01*
X123174478Y-59018478D02*
G75*
G03*
X121336000Y-54580000I-1838478J1838478D01*
G01*
X121336000Y-54579999D02*
G75*
G03*
X119497522Y-59018478I0J-2600001D01*
G01*
%TO.C,R2*%
X141370000Y-85422000D02*
X134830000Y-85422000D01*
X141370000Y-88162000D02*
X134830000Y-88162000D01*
X134830000Y-85422000D02*
X134830000Y-85752000D01*
X141370000Y-85752000D02*
X141370000Y-85422000D01*
X141370000Y-87832000D02*
X141370000Y-88162000D01*
X134830000Y-88162000D02*
X134830000Y-87832000D01*
%TO.C,R5*%
X147220000Y-70250000D02*
X146890000Y-70250000D01*
X146890000Y-63710000D02*
X147220000Y-63710000D01*
X149630000Y-70250000D02*
X149630000Y-63710000D01*
X146890000Y-70250000D02*
X146890000Y-63710000D01*
X149300000Y-70250000D02*
X149630000Y-70250000D01*
X149630000Y-63710000D02*
X149300000Y-63710000D01*
%TO.C,C3*%
X151204000Y-79236000D02*
X151204000Y-71996000D01*
X151204000Y-71996000D02*
X153444000Y-71996000D01*
X151204000Y-79236000D02*
X153444000Y-79236000D01*
X153444000Y-79236000D02*
X153444000Y-71996000D01*
%TO.C,C4*%
X146124000Y-64960000D02*
X143284000Y-64960000D01*
X143284000Y-69000000D02*
X146124000Y-69000000D01*
X144704000Y-64270000D02*
X144704000Y-64960000D01*
X143284000Y-64960000D02*
X143284000Y-69000000D01*
X144704000Y-69690000D02*
X144704000Y-69000000D01*
X146124000Y-69000000D02*
X146124000Y-64960000D01*
%TO.C,J5*%
X162350000Y-80350000D02*
X155400000Y-80350000D01*
X167100000Y-80350000D02*
X164650000Y-80350000D01*
X169600000Y-86300000D02*
X167100000Y-86300000D01*
X162350000Y-87050000D02*
X155400000Y-87050000D01*
X167100000Y-81100000D02*
X167100000Y-80350000D01*
X155400000Y-82650000D02*
X155400000Y-84750000D01*
X167100000Y-87050000D02*
X164650000Y-87050000D01*
X169600000Y-81100000D02*
X167100000Y-81100000D01*
X167100000Y-86300000D02*
X167100000Y-87050000D01*
X169600000Y-81100000D02*
X169600000Y-86300000D01*
%TO.C,R3*%
X153186000Y-53550000D02*
X152856000Y-53550000D01*
X150446000Y-53550000D02*
X150776000Y-53550000D01*
X152856000Y-60090000D02*
X153186000Y-60090000D01*
X150446000Y-60090000D02*
X150446000Y-53550000D01*
X150776000Y-60090000D02*
X150446000Y-60090000D01*
X153186000Y-60090000D02*
X153186000Y-53550000D01*
%TD*%
%LPC*%
D12*
%TO.C,R10*%
X137592000Y-64186000D03*
D13*
X137592000Y-56566000D03*
%TD*%
D12*
%TO.C,R9*%
X134290000Y-83236000D03*
D13*
X141910000Y-83236000D03*
%TD*%
D12*
%TO.C,R8*%
X134290000Y-79680000D03*
D13*
X141910000Y-79680000D03*
%TD*%
D14*
%TO.C,J1*%
X127940000Y-97460000D03*
D15*
X130480000Y-97460000D03*
X133020000Y-97460000D03*
X135560000Y-97460000D03*
X138100000Y-97460000D03*
X140640000Y-97460000D03*
X143180000Y-97460000D03*
X145720000Y-97460000D03*
%TD*%
D14*
%TO.C,J3*%
X150800000Y-97460000D03*
D15*
X153340000Y-97460000D03*
X155880000Y-97460000D03*
X158420000Y-97460000D03*
X160960000Y-97460000D03*
X163500000Y-97460000D03*
%TD*%
D14*
%TO.C,J2*%
X118796000Y-49200000D03*
D15*
X121336000Y-49200000D03*
X123876000Y-49200000D03*
X126416000Y-49200000D03*
X128956000Y-49200000D03*
X131496000Y-49200000D03*
X134036000Y-49200000D03*
X136576000Y-49200000D03*
X139116000Y-49200000D03*
X141656000Y-49200000D03*
%TD*%
D14*
%TO.C,J4*%
X145720000Y-49200000D03*
D15*
X148260000Y-49200000D03*
X150800000Y-49200000D03*
X153340000Y-49200000D03*
X155880000Y-49200000D03*
X158420000Y-49200000D03*
X160960000Y-49200000D03*
X163500000Y-49200000D03*
%TD*%
D12*
%TO.C,R1*%
X112446000Y-62916000D03*
D13*
X120066000Y-62916000D03*
%TD*%
D16*
%TO.C,LS1*%
X127178000Y-55824000D03*
D17*
X129718000Y-55824000D03*
%TD*%
D12*
%TO.C,R4*%
X134290000Y-90348000D03*
D13*
X141910000Y-90348000D03*
%TD*%
D12*
%TO.C,R6*%
X148260000Y-60630000D03*
D13*
X148260000Y-53010000D03*
%TD*%
D12*
%TO.C,C1*%
X122666000Y-62408000D03*
D13*
X130166000Y-62408000D03*
%TD*%
D18*
%TO.C,J8*%
X107326000Y-55747000D03*
D12*
X109926000Y-55747000D03*
X105226000Y-55747000D03*
X112026000Y-55747000D03*
X105226000Y-58547000D03*
X112026000Y-58547000D03*
D19*
X101776000Y-52897000D03*
X115476000Y-52897000D03*
D20*
X108626000Y-52097000D03*
%TD*%
D21*
%TO.C,J6*%
X160000000Y-73580000D03*
X160000000Y-78580000D03*
D22*
X156000000Y-78380000D03*
X156000000Y-73780000D03*
D23*
X163500000Y-78830000D03*
X163500000Y-73330000D03*
%TD*%
D12*
%TO.C,R7*%
X144704000Y-60630000D03*
D13*
X144704000Y-53010000D03*
%TD*%
D12*
%TO.C,C2*%
X141148000Y-61352000D03*
X141148000Y-56352000D03*
%TD*%
D18*
%TO.C,D1*%
X134290000Y-53264000D03*
D13*
X141910000Y-53264000D03*
%TD*%
D24*
%TO.C,Q1*%
X120066000Y-57180000D03*
D25*
X121336000Y-57180000D03*
X122606000Y-57180000D03*
%TD*%
D12*
%TO.C,R2*%
X141910000Y-86792000D03*
D13*
X134290000Y-86792000D03*
%TD*%
D12*
%TO.C,R5*%
X148260000Y-70790000D03*
D13*
X148260000Y-63170000D03*
%TD*%
D12*
%TO.C,C3*%
X152324000Y-78116000D03*
X152324000Y-73116000D03*
%TD*%
%TO.C,C4*%
X144704000Y-70730000D03*
D13*
X144704000Y-63230000D03*
%TD*%
D21*
%TO.C,J5*%
X160000000Y-86200000D03*
X160000000Y-81200000D03*
D22*
X156000000Y-86000000D03*
X156000000Y-81400000D03*
D23*
X163500000Y-80950000D03*
X163500000Y-86450000D03*
%TD*%
D26*
%TO.C,MH2*%
X113970000Y-97460000D03*
%TD*%
D13*
%TO.C,R3*%
X151816000Y-53010000D03*
D12*
X151816000Y-60630000D03*
%TD*%
D26*
%TO.C,MH3*%
X166040000Y-64440000D03*
%TD*%
%TO.C,MH4*%
X166040000Y-92380000D03*
%TD*%
M02*
