%TF.GenerationSoftware,KiCad,Pcbnew,(6.0.6)*%
%TF.CreationDate,2022-07-11T15:05:09+02:00*%
%TF.ProjectId,ZXSpectrumFPGAShield,5a585370-6563-4747-9275-6d4650474153,rev?*%
%TF.SameCoordinates,Original*%
%TF.FileFunction,Copper,L2,Bot*%
%TF.FilePolarity,Positive*%
%FSLAX46Y46*%
G04 Gerber Fmt 4.6, Leading zero omitted, Abs format (unit mm)*
G04 Created by KiCad (PCBNEW (6.0.6)) date 2022-07-11 15:05:09*
%MOMM*%
%LPD*%
G01*
G04 APERTURE LIST*
G04 Aperture macros list*
%AMRoundRect*
0 Rectangle with rounded corners*
0 $1 Rounding radius*
0 $2 $3 $4 $5 $6 $7 $8 $9 X,Y pos of 4 corners*
0 Add a 4 corners polygon primitive as box body*
4,1,4,$2,$3,$4,$5,$6,$7,$8,$9,$2,$3,0*
0 Add four circle primitives for the rounded corners*
1,1,$1+$1,$2,$3*
1,1,$1+$1,$4,$5*
1,1,$1+$1,$6,$7*
1,1,$1+$1,$8,$9*
0 Add four rect primitives between the rounded corners*
20,1,$1+$1,$2,$3,$4,$5,0*
20,1,$1+$1,$4,$5,$6,$7,0*
20,1,$1+$1,$6,$7,$8,$9,0*
20,1,$1+$1,$8,$9,$2,$3,0*%
G04 Aperture macros list end*
%TA.AperFunction,ComponentPad*%
%ADD10C,1.600000*%
%TD*%
%TA.AperFunction,ComponentPad*%
%ADD11O,1.600000X1.600000*%
%TD*%
%TA.AperFunction,ComponentPad*%
%ADD12R,1.700000X1.700000*%
%TD*%
%TA.AperFunction,ComponentPad*%
%ADD13O,1.700000X1.700000*%
%TD*%
%TA.AperFunction,ComponentPad*%
%ADD14RoundRect,0.250000X-0.620000X-0.845000X0.620000X-0.845000X0.620000X0.845000X-0.620000X0.845000X0*%
%TD*%
%TA.AperFunction,ComponentPad*%
%ADD15O,1.740000X2.190000*%
%TD*%
%TA.AperFunction,ComponentPad*%
%ADD16R,1.600000X1.600000*%
%TD*%
%TA.AperFunction,ComponentPad*%
%ADD17O,2.000000X3.500000*%
%TD*%
%TA.AperFunction,ComponentPad*%
%ADD18O,4.000000X2.000000*%
%TD*%
%TA.AperFunction,ComponentPad*%
%ADD19O,2.300000X1.800000*%
%TD*%
%TA.AperFunction,ComponentPad*%
%ADD20O,2.300000X2.000000*%
%TD*%
%TA.AperFunction,ComponentPad*%
%ADD21R,1.050000X1.500000*%
%TD*%
%TA.AperFunction,ComponentPad*%
%ADD22O,1.050000X1.500000*%
%TD*%
%TA.AperFunction,SMDPad,CuDef*%
%ADD23R,1.900000X0.800000*%
%TD*%
%TA.AperFunction,ViaPad*%
%ADD24C,0.600000*%
%TD*%
%TA.AperFunction,Conductor*%
%ADD25C,1.000000*%
%TD*%
G04 APERTURE END LIST*
D10*
%TO.P,R10,1*%
%TO.N,Net-(C2-Pad2)*%
X137592000Y-64186000D03*
D11*
%TO.P,R10,2*%
%TO.N,MIC{slash}TAPE*%
X137592000Y-56566000D03*
%TD*%
D10*
%TO.P,R9,1*%
%TO.N,Net-(LS1-Pad1)*%
X134290000Y-83236000D03*
D11*
%TO.P,R9,2*%
%TO.N,Net-(Q1-Pad1)*%
X141910000Y-83236000D03*
%TD*%
D10*
%TO.P,R8,1*%
%TO.N,Net-(LS1-Pad1)*%
X134290000Y-79680000D03*
D11*
%TO.P,R8,2*%
%TO.N,GND*%
X141910000Y-79680000D03*
%TD*%
D12*
%TO.P,J1,1,Pin_1*%
%TO.N,unconnected-(J1-Pad1)*%
X127940000Y-97460000D03*
D13*
%TO.P,J1,2,Pin_2*%
%TO.N,/IOREF*%
X130480000Y-97460000D03*
%TO.P,J1,3,Pin_3*%
%TO.N,/~{RESET}*%
X133020000Y-97460000D03*
%TO.P,J1,4,Pin_4*%
%TO.N,+3V3*%
X135560000Y-97460000D03*
%TO.P,J1,5,Pin_5*%
%TO.N,+5V*%
X138100000Y-97460000D03*
%TO.P,J1,6,Pin_6*%
%TO.N,GND*%
X140640000Y-97460000D03*
%TO.P,J1,7,Pin_7*%
X143180000Y-97460000D03*
%TO.P,J1,8,Pin_8*%
%TO.N,VCC*%
X145720000Y-97460000D03*
%TD*%
D12*
%TO.P,J3,1,Pin_1*%
%TO.N,/A0*%
X150800000Y-97460000D03*
D13*
%TO.P,J3,2,Pin_2*%
%TO.N,/A1*%
X153340000Y-97460000D03*
%TO.P,J3,3,Pin_3*%
%TO.N,/A2*%
X155880000Y-97460000D03*
%TO.P,J3,4,Pin_4*%
%TO.N,/A3*%
X158420000Y-97460000D03*
%TO.P,J3,5,Pin_5*%
%TO.N,/SDA{slash}A4*%
X160960000Y-97460000D03*
%TO.P,J3,6,Pin_6*%
%TO.N,/SCL{slash}A5*%
X163500000Y-97460000D03*
%TD*%
D12*
%TO.P,J2,1,Pin_1*%
%TO.N,/SCL{slash}A5*%
X118796000Y-49200000D03*
D13*
%TO.P,J2,2,Pin_2*%
%TO.N,/SDA{slash}A4*%
X121336000Y-49200000D03*
%TO.P,J2,3,Pin_3*%
%TO.N,/AREF*%
X123876000Y-49200000D03*
%TO.P,J2,4,Pin_4*%
%TO.N,GND*%
X126416000Y-49200000D03*
%TO.P,J2,5,Pin_5*%
%TO.N,/13*%
X128956000Y-49200000D03*
%TO.P,J2,6,Pin_6*%
%TO.N,/12*%
X131496000Y-49200000D03*
%TO.P,J2,7,Pin_7*%
%TO.N,/\u002A11*%
X134036000Y-49200000D03*
%TO.P,J2,8,Pin_8*%
%TO.N,/\u002A10*%
X136576000Y-49200000D03*
%TO.P,J2,9,Pin_9*%
%TO.N,/\u002A9*%
X139116000Y-49200000D03*
%TO.P,J2,10,Pin_10*%
%TO.N,MIC{slash}TAPE*%
X141656000Y-49200000D03*
%TD*%
D12*
%TO.P,J4,1,Pin_1*%
%TO.N,/7*%
X145720000Y-49200000D03*
D13*
%TO.P,J4,2,Pin_2*%
%TO.N,/\u002A6*%
X148260000Y-49200000D03*
%TO.P,J4,3,Pin_3*%
%TO.N,/\u002A5*%
X150800000Y-49200000D03*
%TO.P,J4,4,Pin_4*%
%TO.N,/4*%
X153340000Y-49200000D03*
%TO.P,J4,5,Pin_5*%
%TO.N,/\u002A3*%
X155880000Y-49200000D03*
%TO.P,J4,6,Pin_6*%
%TO.N,/2*%
X158420000Y-49200000D03*
%TO.P,J4,7,Pin_7*%
%TO.N,/TX{slash}1*%
X160960000Y-49200000D03*
%TO.P,J4,8,Pin_8*%
%TO.N,/RX{slash}0*%
X163500000Y-49200000D03*
%TD*%
D10*
%TO.P,R1,1*%
%TO.N,Net-(J8-Pad5)*%
X112446000Y-62916000D03*
D11*
%TO.P,R1,2*%
%TO.N,+5V*%
X120066000Y-62916000D03*
%TD*%
D14*
%TO.P,LS1,1,1*%
%TO.N,Net-(LS1-Pad1)*%
X127178000Y-55824000D03*
D15*
%TO.P,LS1,2,2*%
%TO.N,GND*%
X129718000Y-55824000D03*
%TD*%
D10*
%TO.P,R4,1*%
%TO.N,Net-(J8-Pad1)*%
X134290000Y-90348000D03*
D11*
%TO.P,R4,2*%
%TO.N,/TX{slash}1*%
X141910000Y-90348000D03*
%TD*%
D10*
%TO.P,R6,1*%
%TO.N,Net-(J6-PadT)*%
X148260000Y-60630000D03*
D11*
%TO.P,R6,2*%
%TO.N,Net-(C2-Pad1)*%
X148260000Y-53010000D03*
%TD*%
D10*
%TO.P,C1,1*%
%TO.N,+5V*%
X122666000Y-62408000D03*
D11*
%TO.P,C1,2*%
%TO.N,GND*%
X130166000Y-62408000D03*
%TD*%
D16*
%TO.P,J8,1*%
%TO.N,Net-(J8-Pad1)*%
X107326000Y-55747000D03*
D10*
%TO.P,J8,2*%
%TO.N,unconnected-(J8-Pad2)*%
X109926000Y-55747000D03*
%TO.P,J8,3*%
%TO.N,GND*%
X105226000Y-55747000D03*
%TO.P,J8,4*%
%TO.N,+5V*%
X112026000Y-55747000D03*
%TO.P,J8,5*%
%TO.N,Net-(J8-Pad5)*%
X105226000Y-58547000D03*
%TO.P,J8,6*%
%TO.N,unconnected-(J8-Pad6)*%
X112026000Y-58547000D03*
D17*
%TO.P,J8,7,shield*%
%TO.N,GND*%
X101776000Y-52897000D03*
X115476000Y-52897000D03*
D18*
X108626000Y-52097000D03*
%TD*%
D19*
%TO.P,J6,R*%
%TO.N,N/C*%
X156000000Y-78380000D03*
%TO.P,J6,S*%
%TO.N,GND*%
X156000000Y-73780000D03*
D20*
%TO.P,J6,T*%
%TO.N,Net-(J6-PadT)*%
X163500000Y-78830000D03*
X163500000Y-73330000D03*
%TD*%
D10*
%TO.P,R7,1*%
%TO.N,Net-(C3-Pad2)*%
X144704000Y-60630000D03*
D11*
%TO.P,R7,2*%
%TO.N,Net-(C2-Pad2)*%
X144704000Y-53010000D03*
%TD*%
D10*
%TO.P,C2,1*%
%TO.N,Net-(C2-Pad1)*%
X141148000Y-61352000D03*
%TO.P,C2,2*%
%TO.N,Net-(C2-Pad2)*%
X141148000Y-56352000D03*
%TD*%
D16*
%TO.P,D1,1,K*%
%TO.N,Net-(D1-Pad1)*%
X134290000Y-53264000D03*
D11*
%TO.P,D1,2,A*%
%TO.N,Net-(C2-Pad2)*%
X141910000Y-53264000D03*
%TD*%
D21*
%TO.P,Q1,1,E*%
%TO.N,Net-(Q1-Pad1)*%
X120066000Y-57180000D03*
D22*
%TO.P,Q1,2,B*%
%TO.N,Net-(D1-Pad1)*%
X121336000Y-57180000D03*
%TO.P,Q1,3,C*%
%TO.N,+5V*%
X122606000Y-57180000D03*
%TD*%
D10*
%TO.P,R2,1*%
%TO.N,+5V*%
X141910000Y-86792000D03*
D11*
%TO.P,R2,2*%
%TO.N,Net-(J8-Pad1)*%
X134290000Y-86792000D03*
%TD*%
D10*
%TO.P,R5,1*%
%TO.N,GND*%
X148260000Y-70790000D03*
D11*
%TO.P,R5,2*%
%TO.N,Net-(J6-PadT)*%
X148260000Y-63170000D03*
%TD*%
D10*
%TO.P,C3,1*%
%TO.N,Net-(C3-Pad1)*%
X152324000Y-78116000D03*
%TO.P,C3,2*%
%TO.N,Net-(C3-Pad2)*%
X152324000Y-73116000D03*
%TD*%
%TO.P,C4,1*%
%TO.N,GND*%
X144704000Y-70730000D03*
D11*
%TO.P,C4,2*%
%TO.N,Net-(C2-Pad2)*%
X144704000Y-63230000D03*
%TD*%
D19*
%TO.P,J5,R*%
%TO.N,N/C*%
X156000000Y-86000000D03*
%TO.P,J5,S*%
%TO.N,GND*%
X156000000Y-81400000D03*
D20*
%TO.P,J5,T*%
%TO.N,Net-(C3-Pad1)*%
X163500000Y-80950000D03*
X163500000Y-86450000D03*
%TD*%
D11*
%TO.P,R3,2*%
%TO.N,/\u002A5*%
X151816000Y-53010000D03*
D10*
%TO.P,R3,1*%
%TO.N,Net-(J8-Pad5)*%
X151816000Y-60630000D03*
%TD*%
D23*
%TO.P,D3,1*%
%TO.N,GND*%
X152300000Y-85842000D03*
%TO.P,D3,2*%
%TO.N,+3V3*%
X152300000Y-87742000D03*
%TO.P,D3,3*%
%TO.N,/TX{slash}1*%
X149300000Y-86792000D03*
%TD*%
%TO.P,D2,1*%
%TO.N,GND*%
X152300000Y-81270000D03*
%TO.P,D2,2*%
%TO.N,+3V3*%
X152300000Y-83170000D03*
%TO.P,D2,3*%
%TO.N,/\u002A5*%
X149300000Y-82220000D03*
%TD*%
D24*
%TO.N,Net-(LS1-Pad1)*%
X125109500Y-59830700D03*
%TO.N,Net-(C3-Pad2)*%
X146526200Y-68685200D03*
%TO.N,/TX{slash}1*%
X157875500Y-90348000D03*
%TO.N,/SCL{slash}A5*%
X161016000Y-52391800D03*
%TO.N,/SDA{slash}A4*%
X124086000Y-53879500D03*
X161259600Y-54764400D03*
%TD*%
D25*
%TO.N,Net-(Q1-Pad1)*%
X120066000Y-57180000D02*
X120066000Y-55729700D01*
X141910000Y-83236000D02*
X141910000Y-81735700D01*
X123116100Y-55729700D02*
X120066000Y-55729700D01*
X128601800Y-61215400D02*
X123116100Y-55729700D01*
X128601800Y-68505200D02*
X128601800Y-61215400D01*
X141832300Y-81735700D02*
X128601800Y-68505200D01*
X141910000Y-81735700D02*
X141832300Y-81735700D01*
%TO.N,Net-(C3-Pad1)*%
X163500000Y-86450000D02*
X163500000Y-80950000D01*
%TO.N,Net-(LS1-Pad1)*%
X125109500Y-70499500D02*
X125109500Y-59830700D01*
X134290000Y-79680000D02*
X125109500Y-70499500D01*
%TO.N,Net-(J8-Pad1)*%
X134290000Y-86792000D02*
X134290000Y-90348000D01*
X107326000Y-61328300D02*
X132789700Y-86792000D01*
X107326000Y-55747000D02*
X107326000Y-61328300D01*
X134290000Y-86792000D02*
X132789700Y-86792000D01*
%TO.N,Net-(J6-PadT)*%
X148260000Y-63170000D02*
X148260000Y-60630000D01*
X163500000Y-73330000D02*
X163500000Y-78830000D01*
%TO.N,Net-(C3-Pad2)*%
X146526200Y-62452200D02*
X146526200Y-68685200D01*
X144704000Y-60630000D02*
X146526200Y-62452200D01*
%TO.N,Net-(C2-Pad2)*%
X141910000Y-55590000D02*
X141148000Y-56352000D01*
X141910000Y-53264000D02*
X141910000Y-55590000D01*
X137592000Y-59908000D02*
X137592000Y-64186000D01*
X141148000Y-56352000D02*
X137592000Y-59908000D01*
%TO.N,MIC{slash}TAPE*%
X137592000Y-54814300D02*
X137592000Y-56566000D01*
X141656000Y-50750300D02*
X137592000Y-54814300D01*
X141656000Y-49200000D02*
X141656000Y-50750300D01*
%TO.N,+3V3*%
X153950300Y-85095400D02*
X153950300Y-87742000D01*
X153125200Y-84270300D02*
X153950300Y-85095400D01*
X152300000Y-84270300D02*
X153125200Y-84270300D01*
X152300000Y-83170000D02*
X152300000Y-84270300D01*
X152300000Y-87742000D02*
X153125200Y-87742000D01*
X153125200Y-87742000D02*
X153950300Y-87742000D01*
X139072700Y-93947300D02*
X135560000Y-97460000D01*
X146919900Y-93947300D02*
X139072700Y-93947300D01*
X153125200Y-87742000D02*
X146919900Y-93947300D01*
%TO.N,/TX{slash}1*%
X145866000Y-87892300D02*
X143410300Y-90348000D01*
X149300000Y-87892300D02*
X145866000Y-87892300D01*
X149300000Y-86792000D02*
X149300000Y-87892300D01*
X141910000Y-90348000D02*
X143410300Y-90348000D01*
X160960000Y-49200000D02*
X160960000Y-50750300D01*
X157875500Y-53834800D02*
X157875500Y-90348000D01*
X160960000Y-50750300D02*
X157875500Y-53834800D01*
%TO.N,/\u002A5*%
X150038000Y-56288300D02*
X151816000Y-54510300D01*
X150038000Y-80381700D02*
X150038000Y-56288300D01*
X149300000Y-81119700D02*
X150038000Y-80381700D01*
X149300000Y-82220000D02*
X149300000Y-81119700D01*
X151816000Y-53010000D02*
X151816000Y-53760100D01*
X151816000Y-53760100D02*
X151816000Y-54510300D01*
X150800000Y-52744100D02*
X150800000Y-49200000D01*
X151816000Y-53760100D02*
X150800000Y-52744100D01*
%TO.N,Net-(C2-Pad1)*%
X147989700Y-54510300D02*
X148260000Y-54510300D01*
X141148000Y-61352000D02*
X147989700Y-54510300D01*
X148260000Y-53010000D02*
X148260000Y-54510300D01*
%TO.N,/SCL{slash}A5*%
X163723400Y-55099200D02*
X161016000Y-52391800D01*
X163723400Y-65599500D02*
X163723400Y-55099200D01*
X165382400Y-67258500D02*
X163723400Y-65599500D01*
X165382400Y-88834100D02*
X165382400Y-67258500D01*
X163500000Y-90716500D02*
X165382400Y-88834100D01*
X163500000Y-97460000D02*
X163500000Y-90716500D01*
%TO.N,/SDA{slash}A4*%
X121336000Y-51129500D02*
X124086000Y-53879500D01*
X121336000Y-49200000D02*
X121336000Y-51129500D01*
X161259600Y-95610100D02*
X161259600Y-54764400D01*
X160960000Y-95909700D02*
X161259600Y-95610100D01*
X160960000Y-97460000D02*
X160960000Y-95909700D01*
%TO.N,+5V*%
X122606000Y-57180000D02*
X122606000Y-58630300D01*
X118565700Y-62286700D02*
X118565700Y-62916000D01*
X112026000Y-55747000D02*
X118565700Y-62286700D01*
X120066000Y-62916000D02*
X118565700Y-62916000D01*
X122666000Y-58690300D02*
X122666000Y-62408000D01*
X122606000Y-58630300D02*
X122666000Y-58690300D01*
X136576000Y-81458000D02*
X141910000Y-86792000D01*
X133897500Y-81458000D02*
X136576000Y-81458000D01*
X122666000Y-70226500D02*
X133897500Y-81458000D01*
X122666000Y-62408000D02*
X122666000Y-70226500D01*
%TO.N,GND*%
X156000000Y-81400000D02*
X154149700Y-81400000D01*
X149272800Y-85542500D02*
X143410300Y-79680000D01*
X152000500Y-85542500D02*
X149272800Y-85542500D01*
X152300000Y-85842000D02*
X152000500Y-85542500D01*
X141910000Y-79680000D02*
X143410300Y-79680000D01*
X156000000Y-73780000D02*
X156000000Y-75380300D01*
X154019700Y-77360600D02*
X156000000Y-75380300D01*
X154019700Y-81270000D02*
X154019700Y-77360600D01*
X152300000Y-81270000D02*
X154019700Y-81270000D01*
X154019700Y-81270000D02*
X154149700Y-81400000D01*
X104826300Y-55347300D02*
X105226000Y-55747000D01*
X101776000Y-55347300D02*
X104826300Y-55347300D01*
X101776000Y-52897000D02*
X101776000Y-55347300D01*
X129718000Y-56113200D02*
X129718000Y-57619300D01*
X129718000Y-56113200D02*
X129718000Y-55824000D01*
X129694400Y-54028700D02*
X126416000Y-50750300D01*
X129718000Y-54028700D02*
X129694400Y-54028700D01*
X126416000Y-49200000D02*
X126416000Y-50750300D01*
X129718000Y-55824000D02*
X129718000Y-54028700D01*
X144704000Y-70730000D02*
X143410300Y-72023700D01*
X143410300Y-72023700D02*
X143410300Y-79680000D01*
X130166000Y-58067300D02*
X129718000Y-57619300D01*
X130166000Y-62408000D02*
X130166000Y-58067300D01*
X141282000Y-72023700D02*
X143410300Y-72023700D01*
X131666300Y-62408000D02*
X141282000Y-72023700D01*
X130166000Y-62408000D02*
X131666300Y-62408000D01*
%TD*%
M02*
