%TF.GenerationSoftware,KiCad,Pcbnew,(6.0.6)*%
%TF.CreationDate,2022-07-11T15:05:09+02:00*%
%TF.ProjectId,ZXSpectrumFPGAShield,5a585370-6563-4747-9275-6d4650474153,rev?*%
%TF.SameCoordinates,Original*%
%TF.FileFunction,Copper,L1,Top*%
%TF.FilePolarity,Positive*%
%FSLAX46Y46*%
G04 Gerber Fmt 4.6, Leading zero omitted, Abs format (unit mm)*
G04 Created by KiCad (PCBNEW (6.0.6)) date 2022-07-11 15:05:09*
%MOMM*%
%LPD*%
G01*
G04 APERTURE LIST*
G04 Aperture macros list*
%AMRoundRect*
0 Rectangle with rounded corners*
0 $1 Rounding radius*
0 $2 $3 $4 $5 $6 $7 $8 $9 X,Y pos of 4 corners*
0 Add a 4 corners polygon primitive as box body*
4,1,4,$2,$3,$4,$5,$6,$7,$8,$9,$2,$3,0*
0 Add four circle primitives for the rounded corners*
1,1,$1+$1,$2,$3*
1,1,$1+$1,$4,$5*
1,1,$1+$1,$6,$7*
1,1,$1+$1,$8,$9*
0 Add four rect primitives between the rounded corners*
20,1,$1+$1,$2,$3,$4,$5,0*
20,1,$1+$1,$4,$5,$6,$7,0*
20,1,$1+$1,$6,$7,$8,$9,0*
20,1,$1+$1,$8,$9,$2,$3,0*%
G04 Aperture macros list end*
%TA.AperFunction,ComponentPad*%
%ADD10C,1.600000*%
%TD*%
%TA.AperFunction,ComponentPad*%
%ADD11O,1.600000X1.600000*%
%TD*%
%TA.AperFunction,ComponentPad*%
%ADD12R,1.700000X1.700000*%
%TD*%
%TA.AperFunction,ComponentPad*%
%ADD13O,1.700000X1.700000*%
%TD*%
%TA.AperFunction,ComponentPad*%
%ADD14RoundRect,0.250000X-0.620000X-0.845000X0.620000X-0.845000X0.620000X0.845000X-0.620000X0.845000X0*%
%TD*%
%TA.AperFunction,ComponentPad*%
%ADD15O,1.740000X2.190000*%
%TD*%
%TA.AperFunction,ComponentPad*%
%ADD16R,1.600000X1.600000*%
%TD*%
%TA.AperFunction,ComponentPad*%
%ADD17O,2.000000X3.500000*%
%TD*%
%TA.AperFunction,ComponentPad*%
%ADD18O,4.000000X2.000000*%
%TD*%
%TA.AperFunction,ComponentPad*%
%ADD19O,2.300000X1.800000*%
%TD*%
%TA.AperFunction,ComponentPad*%
%ADD20O,2.300000X2.000000*%
%TD*%
%TA.AperFunction,ComponentPad*%
%ADD21R,1.050000X1.500000*%
%TD*%
%TA.AperFunction,ComponentPad*%
%ADD22O,1.050000X1.500000*%
%TD*%
%TA.AperFunction,ViaPad*%
%ADD23C,0.600000*%
%TD*%
%TA.AperFunction,Conductor*%
%ADD24C,1.000000*%
%TD*%
G04 APERTURE END LIST*
D10*
%TO.P,R10,1*%
%TO.N,Net-(C2-Pad2)*%
X137592000Y-64186000D03*
D11*
%TO.P,R10,2*%
%TO.N,MIC{slash}TAPE*%
X137592000Y-56566000D03*
%TD*%
D10*
%TO.P,R9,1*%
%TO.N,Net-(LS1-Pad1)*%
X134290000Y-83236000D03*
D11*
%TO.P,R9,2*%
%TO.N,Net-(Q1-Pad1)*%
X141910000Y-83236000D03*
%TD*%
D10*
%TO.P,R8,1*%
%TO.N,Net-(LS1-Pad1)*%
X134290000Y-79680000D03*
D11*
%TO.P,R8,2*%
%TO.N,GND*%
X141910000Y-79680000D03*
%TD*%
D12*
%TO.P,J1,1,Pin_1*%
%TO.N,unconnected-(J1-Pad1)*%
X127940000Y-97460000D03*
D13*
%TO.P,J1,2,Pin_2*%
%TO.N,/IOREF*%
X130480000Y-97460000D03*
%TO.P,J1,3,Pin_3*%
%TO.N,/~{RESET}*%
X133020000Y-97460000D03*
%TO.P,J1,4,Pin_4*%
%TO.N,+3V3*%
X135560000Y-97460000D03*
%TO.P,J1,5,Pin_5*%
%TO.N,+5V*%
X138100000Y-97460000D03*
%TO.P,J1,6,Pin_6*%
%TO.N,GND*%
X140640000Y-97460000D03*
%TO.P,J1,7,Pin_7*%
X143180000Y-97460000D03*
%TO.P,J1,8,Pin_8*%
%TO.N,VCC*%
X145720000Y-97460000D03*
%TD*%
D12*
%TO.P,J3,1,Pin_1*%
%TO.N,/A0*%
X150800000Y-97460000D03*
D13*
%TO.P,J3,2,Pin_2*%
%TO.N,/A1*%
X153340000Y-97460000D03*
%TO.P,J3,3,Pin_3*%
%TO.N,/A2*%
X155880000Y-97460000D03*
%TO.P,J3,4,Pin_4*%
%TO.N,/A3*%
X158420000Y-97460000D03*
%TO.P,J3,5,Pin_5*%
%TO.N,/SDA{slash}A4*%
X160960000Y-97460000D03*
%TO.P,J3,6,Pin_6*%
%TO.N,/SCL{slash}A5*%
X163500000Y-97460000D03*
%TD*%
D12*
%TO.P,J2,1,Pin_1*%
%TO.N,/SCL{slash}A5*%
X118796000Y-49200000D03*
D13*
%TO.P,J2,2,Pin_2*%
%TO.N,/SDA{slash}A4*%
X121336000Y-49200000D03*
%TO.P,J2,3,Pin_3*%
%TO.N,/AREF*%
X123876000Y-49200000D03*
%TO.P,J2,4,Pin_4*%
%TO.N,GND*%
X126416000Y-49200000D03*
%TO.P,J2,5,Pin_5*%
%TO.N,/13*%
X128956000Y-49200000D03*
%TO.P,J2,6,Pin_6*%
%TO.N,/12*%
X131496000Y-49200000D03*
%TO.P,J2,7,Pin_7*%
%TO.N,/\u002A11*%
X134036000Y-49200000D03*
%TO.P,J2,8,Pin_8*%
%TO.N,/\u002A10*%
X136576000Y-49200000D03*
%TO.P,J2,9,Pin_9*%
%TO.N,/\u002A9*%
X139116000Y-49200000D03*
%TO.P,J2,10,Pin_10*%
%TO.N,MIC{slash}TAPE*%
X141656000Y-49200000D03*
%TD*%
D12*
%TO.P,J4,1,Pin_1*%
%TO.N,/7*%
X145720000Y-49200000D03*
D13*
%TO.P,J4,2,Pin_2*%
%TO.N,/\u002A6*%
X148260000Y-49200000D03*
%TO.P,J4,3,Pin_3*%
%TO.N,/\u002A5*%
X150800000Y-49200000D03*
%TO.P,J4,4,Pin_4*%
%TO.N,/4*%
X153340000Y-49200000D03*
%TO.P,J4,5,Pin_5*%
%TO.N,/\u002A3*%
X155880000Y-49200000D03*
%TO.P,J4,6,Pin_6*%
%TO.N,/2*%
X158420000Y-49200000D03*
%TO.P,J4,7,Pin_7*%
%TO.N,/TX{slash}1*%
X160960000Y-49200000D03*
%TO.P,J4,8,Pin_8*%
%TO.N,/RX{slash}0*%
X163500000Y-49200000D03*
%TD*%
D10*
%TO.P,R1,1*%
%TO.N,Net-(J8-Pad5)*%
X112446000Y-62916000D03*
D11*
%TO.P,R1,2*%
%TO.N,+5V*%
X120066000Y-62916000D03*
%TD*%
D14*
%TO.P,LS1,1,1*%
%TO.N,Net-(LS1-Pad1)*%
X127178000Y-55824000D03*
D15*
%TO.P,LS1,2,2*%
%TO.N,GND*%
X129718000Y-55824000D03*
%TD*%
D10*
%TO.P,R4,1*%
%TO.N,Net-(J8-Pad1)*%
X134290000Y-90348000D03*
D11*
%TO.P,R4,2*%
%TO.N,/TX{slash}1*%
X141910000Y-90348000D03*
%TD*%
D10*
%TO.P,R6,1*%
%TO.N,Net-(J6-PadT)*%
X148260000Y-60630000D03*
D11*
%TO.P,R6,2*%
%TO.N,Net-(C2-Pad1)*%
X148260000Y-53010000D03*
%TD*%
D10*
%TO.P,C1,1*%
%TO.N,+5V*%
X122666000Y-62408000D03*
D11*
%TO.P,C1,2*%
%TO.N,GND*%
X130166000Y-62408000D03*
%TD*%
D16*
%TO.P,J8,1*%
%TO.N,Net-(J8-Pad1)*%
X107326000Y-55747000D03*
D10*
%TO.P,J8,2*%
%TO.N,unconnected-(J8-Pad2)*%
X109926000Y-55747000D03*
%TO.P,J8,3*%
%TO.N,GND*%
X105226000Y-55747000D03*
%TO.P,J8,4*%
%TO.N,+5V*%
X112026000Y-55747000D03*
%TO.P,J8,5*%
%TO.N,Net-(J8-Pad5)*%
X105226000Y-58547000D03*
%TO.P,J8,6*%
%TO.N,unconnected-(J8-Pad6)*%
X112026000Y-58547000D03*
D17*
%TO.P,J8,7,shield*%
%TO.N,GND*%
X101776000Y-52897000D03*
X115476000Y-52897000D03*
D18*
X108626000Y-52097000D03*
%TD*%
D19*
%TO.P,J6,R*%
%TO.N,N/C*%
X156000000Y-78380000D03*
%TO.P,J6,S*%
%TO.N,GND*%
X156000000Y-73780000D03*
D20*
%TO.P,J6,T*%
%TO.N,Net-(J6-PadT)*%
X163500000Y-78830000D03*
X163500000Y-73330000D03*
%TD*%
D10*
%TO.P,R7,1*%
%TO.N,Net-(C3-Pad2)*%
X144704000Y-60630000D03*
D11*
%TO.P,R7,2*%
%TO.N,Net-(C2-Pad2)*%
X144704000Y-53010000D03*
%TD*%
D10*
%TO.P,C2,1*%
%TO.N,Net-(C2-Pad1)*%
X141148000Y-61352000D03*
%TO.P,C2,2*%
%TO.N,Net-(C2-Pad2)*%
X141148000Y-56352000D03*
%TD*%
D16*
%TO.P,D1,1,K*%
%TO.N,Net-(D1-Pad1)*%
X134290000Y-53264000D03*
D11*
%TO.P,D1,2,A*%
%TO.N,Net-(C2-Pad2)*%
X141910000Y-53264000D03*
%TD*%
D21*
%TO.P,Q1,1,E*%
%TO.N,Net-(Q1-Pad1)*%
X120066000Y-57180000D03*
D22*
%TO.P,Q1,2,B*%
%TO.N,Net-(D1-Pad1)*%
X121336000Y-57180000D03*
%TO.P,Q1,3,C*%
%TO.N,+5V*%
X122606000Y-57180000D03*
%TD*%
D10*
%TO.P,R2,1*%
%TO.N,+5V*%
X141910000Y-86792000D03*
D11*
%TO.P,R2,2*%
%TO.N,Net-(J8-Pad1)*%
X134290000Y-86792000D03*
%TD*%
D10*
%TO.P,R5,1*%
%TO.N,GND*%
X148260000Y-70790000D03*
D11*
%TO.P,R5,2*%
%TO.N,Net-(J6-PadT)*%
X148260000Y-63170000D03*
%TD*%
D10*
%TO.P,C3,1*%
%TO.N,Net-(C3-Pad1)*%
X152324000Y-78116000D03*
%TO.P,C3,2*%
%TO.N,Net-(C3-Pad2)*%
X152324000Y-73116000D03*
%TD*%
%TO.P,C4,1*%
%TO.N,GND*%
X144704000Y-70730000D03*
D11*
%TO.P,C4,2*%
%TO.N,Net-(C2-Pad2)*%
X144704000Y-63230000D03*
%TD*%
D19*
%TO.P,J5,R*%
%TO.N,N/C*%
X156000000Y-86000000D03*
%TO.P,J5,S*%
%TO.N,GND*%
X156000000Y-81400000D03*
D20*
%TO.P,J5,T*%
%TO.N,Net-(C3-Pad1)*%
X163500000Y-80950000D03*
X163500000Y-86450000D03*
%TD*%
D11*
%TO.P,R3,2*%
%TO.N,/\u002A5*%
X151816000Y-53010000D03*
D10*
%TO.P,R3,1*%
%TO.N,Net-(J8-Pad5)*%
X151816000Y-60630000D03*
%TD*%
D23*
%TO.N,Net-(LS1-Pad1)*%
X125109500Y-59830700D03*
%TO.N,Net-(C3-Pad2)*%
X146526200Y-68685200D03*
%TO.N,/TX{slash}1*%
X157875500Y-90348000D03*
%TO.N,/SCL{slash}A5*%
X161016000Y-52391800D03*
%TO.N,/SDA{slash}A4*%
X124086000Y-53879500D03*
X161259600Y-54764400D03*
%TD*%
D24*
%TO.N,Net-(C3-Pad1)*%
X152324000Y-80347600D02*
X152324000Y-78116000D01*
X154991800Y-83015400D02*
X152324000Y-80347600D01*
X163134900Y-83015400D02*
X154991800Y-83015400D01*
X163500000Y-82650300D02*
X163134900Y-83015400D01*
X163500000Y-80950000D02*
X163500000Y-82650300D01*
%TO.N,Net-(LS1-Pad1)*%
X125109500Y-57892500D02*
X125109500Y-59830700D01*
X127178000Y-55824000D02*
X125109500Y-57892500D01*
X134290000Y-79680000D02*
X134290000Y-83236000D01*
%TO.N,Net-(J8-Pad5)*%
X115233800Y-65703800D02*
X112446000Y-62916000D01*
X147906000Y-65703800D02*
X115233800Y-65703800D01*
X151816000Y-61793800D02*
X147906000Y-65703800D01*
X151816000Y-60630000D02*
X151816000Y-61793800D01*
X109595000Y-62916000D02*
X112446000Y-62916000D01*
X105226000Y-58547000D02*
X109595000Y-62916000D01*
%TO.N,Net-(J6-PadT)*%
X163500000Y-70191300D02*
X163500000Y-73330000D01*
X152433100Y-59124400D02*
X163500000Y-70191300D01*
X149765600Y-59124400D02*
X152433100Y-59124400D01*
X148260000Y-60630000D02*
X149765600Y-59124400D01*
%TO.N,Net-(D1-Pad1)*%
X121336000Y-57180000D02*
X121336000Y-55729700D01*
X121336000Y-54881100D02*
X121336000Y-55729700D01*
X123553300Y-52663800D02*
X121336000Y-54881100D01*
X132189500Y-52663800D02*
X123553300Y-52663800D01*
X132789700Y-53264000D02*
X132189500Y-52663800D01*
X134290000Y-53264000D02*
X132789700Y-53264000D01*
%TO.N,Net-(C3-Pad2)*%
X148361800Y-68685200D02*
X146526200Y-68685200D01*
X152324000Y-72647400D02*
X148361800Y-68685200D01*
X152324000Y-73116000D02*
X152324000Y-72647400D01*
%TO.N,Net-(C2-Pad2)*%
X138548000Y-63230000D02*
X137592000Y-64186000D01*
X144704000Y-63230000D02*
X138548000Y-63230000D01*
X142949700Y-53264000D02*
X143203700Y-53010000D01*
X141910000Y-53264000D02*
X142949700Y-53264000D01*
X144704000Y-53010000D02*
X143203700Y-53010000D01*
%TO.N,/TX{slash}1*%
X141910000Y-90348000D02*
X157875500Y-90348000D01*
%TO.N,/SCL{slash}A5*%
X159989000Y-51364800D02*
X161016000Y-52391800D01*
X145180800Y-51364800D02*
X159989000Y-51364800D01*
X143564900Y-49748900D02*
X145180800Y-51364800D01*
X143564900Y-48842900D02*
X143564900Y-49748900D01*
X142360200Y-47638200D02*
X143564900Y-48842900D01*
X120357800Y-47638200D02*
X142360200Y-47638200D01*
X118796000Y-49200000D02*
X120357800Y-47638200D01*
%TO.N,/SDA{slash}A4*%
X131909800Y-54764400D02*
X161259600Y-54764400D01*
X131024900Y-53879500D02*
X131909800Y-54764400D01*
X124086000Y-53879500D02*
X131024900Y-53879500D01*
%TO.N,+5V*%
X138100000Y-90602000D02*
X138100000Y-97460000D01*
X141910000Y-86792000D02*
X138100000Y-90602000D01*
X122074300Y-62408000D02*
X121566300Y-62916000D01*
X122666000Y-62408000D02*
X122074300Y-62408000D01*
X120066000Y-62916000D02*
X121566300Y-62916000D01*
%TO.N,GND*%
X148200000Y-70730000D02*
X148260000Y-70790000D01*
X144704000Y-70730000D02*
X148200000Y-70730000D01*
X156000000Y-73780000D02*
X154149700Y-73780000D01*
X104275400Y-50446700D02*
X101776000Y-50446700D01*
X105925700Y-52097000D02*
X104275400Y-50446700D01*
X101776000Y-52897000D02*
X101776000Y-50446700D01*
X108626000Y-52097000D02*
X105925700Y-52097000D01*
X112976600Y-50446700D02*
X111326300Y-52097000D01*
X115476000Y-50446700D02*
X112976600Y-50446700D01*
X108626000Y-52097000D02*
X111326300Y-52097000D01*
X115476000Y-52897000D02*
X115476000Y-51671800D01*
X115476000Y-51671800D02*
X115476000Y-50446700D01*
X116284400Y-50863400D02*
X115476000Y-51671800D01*
X124752600Y-50863400D02*
X116284400Y-50863400D01*
X126416000Y-49200000D02*
X124752600Y-50863400D01*
X148645700Y-79680000D02*
X141910000Y-79680000D01*
X148645700Y-79284000D02*
X154149700Y-73780000D01*
X148645700Y-79680000D02*
X148645700Y-79284000D01*
X143180000Y-97460000D02*
X140640000Y-97460000D01*
X148645700Y-81165400D02*
X148645700Y-79680000D01*
X156278800Y-88798500D02*
X148645700Y-81165400D01*
X158072200Y-88798500D02*
X156278800Y-88798500D01*
X159107300Y-89833600D02*
X158072200Y-88798500D01*
X159107300Y-90843800D02*
X159107300Y-89833600D01*
X154041500Y-95909600D02*
X159107300Y-90843800D01*
X144730400Y-95909600D02*
X154041500Y-95909600D01*
X143180000Y-97460000D02*
X144730400Y-95909600D01*
%TD*%
M02*
