%FSLAX45Y45*%
G04 Gerber Fmt 4.5, Leading zero omitted, Abs format (unit mm)*
G04 Created by KiCad (PCBNEW (6.0.6)) date 2022-07-11 15:06:24*
%MOMM*%
%LPD*%
G01*
G04 APERTURE LIST*
%TA.AperFunction,Profile*%
%ADD10C,0.150000*%
%TD*%
%ADD11C,0.200000*%
%ADD12C,0.040000*%
%ADD13C,0.075000*%
%ADD14C,0.080000*%
%ADD15C,0.100000*%
%ADD16C,0.119000*%
G04 APERTURE END LIST*
D10*
X16604000Y-5936000D02*
X16858000Y-6190000D01*
X10000000Y-9923800D02*
X10000000Y-4742200D01*
X16858000Y-6190000D02*
X16858000Y-9619000D01*
X16527800Y-10000000D02*
X10076200Y-10000000D01*
X10076200Y-4666000D02*
X16350000Y-4666000D01*
X10000000Y-9923800D02*
G75*
G03*
X10076200Y-10000000I76200J0D01*
G01*
X16858000Y-9619000D02*
X16604000Y-9873000D01*
X16350000Y-4666000D02*
X16604000Y-4920000D01*
X16527800Y-10000000D02*
G75*
G03*
X16604000Y-9923800I0J76200D01*
G01*
X16604000Y-4920000D02*
X16604000Y-5936000D01*
X16604000Y-9873000D02*
X16604000Y-9923800D01*
X10076200Y-4666000D02*
G75*
G03*
X10000000Y-4742200I0J-76200D01*
G01*
D11*
D12*
X12388600Y-5367950D02*
X12428600Y-5407950D01*
X12428600Y-5367950D02*
X12388600Y-5407950D01*
X12490950Y-5963070D02*
X12530950Y-6003070D01*
X12530950Y-5963070D02*
X12490950Y-6003070D01*
X14632620Y-6848520D02*
X14672620Y-6888520D01*
X14672620Y-6848520D02*
X14632620Y-6888520D01*
X15767550Y-9014800D02*
X15807550Y-9054800D01*
X15807550Y-9014800D02*
X15767550Y-9054800D01*
X16081600Y-5219180D02*
X16121600Y-5259180D01*
X16121600Y-5219180D02*
X16081600Y-5259180D01*
X16105960Y-5456440D02*
X16145960Y-5496440D01*
X16145960Y-5456440D02*
X16105960Y-5496440D01*
D13*
X12044100Y-5718000D02*
G75*
G03*
X12044100Y-5718000I-37500J0D01*
G01*
X12171100Y-5718000D02*
G75*
G03*
X12171100Y-5718000I-37500J0D01*
G01*
X12298100Y-5718000D02*
G75*
G03*
X12298100Y-5718000I-37500J0D01*
G01*
D14*
X10522600Y-5534700D02*
X10522600Y-5614700D01*
X10482600Y-5574700D02*
X10562600Y-5574700D01*
X10522600Y-5814700D02*
X10522600Y-5894700D01*
X10482600Y-5854700D02*
X10562600Y-5854700D01*
X10732600Y-5534700D02*
X10732600Y-5614700D01*
X10692600Y-5574700D02*
X10772600Y-5574700D01*
X10992600Y-5534700D02*
X10992600Y-5614700D01*
X10952600Y-5574700D02*
X11032600Y-5574700D01*
X11202600Y-5534700D02*
X11202600Y-5614700D01*
X11162600Y-5574700D02*
X11242600Y-5574700D01*
X11202600Y-5814700D02*
X11202600Y-5894700D01*
X11162600Y-5854700D02*
X11242600Y-5854700D01*
X11244600Y-6251600D02*
X11244600Y-6331600D01*
X11204600Y-6291600D02*
X11284600Y-6291600D01*
X12006600Y-6251600D02*
X12006600Y-6331600D01*
X11966600Y-6291600D02*
X12046600Y-6291600D01*
X12266600Y-6200800D02*
X12266600Y-6280800D01*
X12226600Y-6240800D02*
X12306600Y-6240800D01*
X13016600Y-6200800D02*
X13016600Y-6280800D01*
X12976600Y-6240800D02*
X13056600Y-6240800D01*
X13429000Y-5286400D02*
X13429000Y-5366400D01*
X13389000Y-5326400D02*
X13469000Y-5326400D01*
X13429000Y-7928000D02*
X13429000Y-8008000D01*
X13389000Y-7968000D02*
X13469000Y-7968000D01*
X13429000Y-8283600D02*
X13429000Y-8363600D01*
X13389000Y-8323600D02*
X13469000Y-8323600D01*
X13429000Y-8639200D02*
X13429000Y-8719200D01*
X13389000Y-8679200D02*
X13469000Y-8679200D01*
X13429000Y-8994800D02*
X13429000Y-9074800D01*
X13389000Y-9034800D02*
X13469000Y-9034800D01*
X13759200Y-5616600D02*
X13759200Y-5696600D01*
X13719200Y-5656600D02*
X13799200Y-5656600D01*
X13759200Y-6378600D02*
X13759200Y-6458600D01*
X13719200Y-6418600D02*
X13799200Y-6418600D01*
X14114800Y-5595200D02*
X14114800Y-5675200D01*
X14074800Y-5635200D02*
X14154800Y-5635200D01*
X14114800Y-6095200D02*
X14114800Y-6175200D01*
X14074800Y-6135200D02*
X14154800Y-6135200D01*
X14191000Y-5286400D02*
X14191000Y-5366400D01*
X14151000Y-5326400D02*
X14231000Y-5326400D01*
X14191000Y-7928000D02*
X14191000Y-8008000D01*
X14151000Y-7968000D02*
X14231000Y-7968000D01*
X14191000Y-8283600D02*
X14191000Y-8363600D01*
X14151000Y-8323600D02*
X14231000Y-8323600D01*
X14191000Y-8639200D02*
X14191000Y-8719200D01*
X14151000Y-8679200D02*
X14231000Y-8679200D01*
X14191000Y-8994800D02*
X14191000Y-9074800D01*
X14151000Y-9034800D02*
X14231000Y-9034800D01*
X14470400Y-5261000D02*
X14470400Y-5341000D01*
X14430400Y-5301000D02*
X14510400Y-5301000D01*
X14470400Y-6023000D02*
X14470400Y-6103000D01*
X14430400Y-6063000D02*
X14510400Y-6063000D01*
X14470400Y-6283000D02*
X14470400Y-6363000D01*
X14430400Y-6323000D02*
X14510400Y-6323000D01*
X14470400Y-7033000D02*
X14470400Y-7113000D01*
X14430400Y-7073000D02*
X14510400Y-7073000D01*
X14826000Y-5261000D02*
X14826000Y-5341000D01*
X14786000Y-5301000D02*
X14866000Y-5301000D01*
X14826000Y-6023000D02*
X14826000Y-6103000D01*
X14786000Y-6063000D02*
X14866000Y-6063000D01*
X14826000Y-6277000D02*
X14826000Y-6357000D01*
X14786000Y-6317000D02*
X14866000Y-6317000D01*
X14826000Y-7039000D02*
X14826000Y-7119000D01*
X14786000Y-7079000D02*
X14866000Y-7079000D01*
X15181600Y-5261000D02*
X15181600Y-5341000D01*
X15141600Y-5301000D02*
X15221600Y-5301000D01*
X15181600Y-6023000D02*
X15181600Y-6103000D01*
X15141600Y-6063000D02*
X15221600Y-6063000D01*
X15232400Y-7271600D02*
X15232400Y-7351600D01*
X15192400Y-7311600D02*
X15272400Y-7311600D01*
X15232400Y-7771600D02*
X15232400Y-7851600D01*
X15192400Y-7811600D02*
X15272400Y-7811600D01*
X15600000Y-7338000D02*
X15600000Y-7418000D01*
X15560000Y-7378000D02*
X15640000Y-7378000D01*
D11*
X15625000Y-7338000D02*
X15575000Y-7338000D01*
X15625000Y-7418000D02*
X15575000Y-7418000D01*
X15575000Y-7338000D02*
G75*
G03*
X15575000Y-7418000I0J-40000D01*
G01*
X15625000Y-7418000D02*
G75*
G03*
X15625000Y-7338000I0J40000D01*
G01*
D14*
X15600000Y-7798000D02*
X15600000Y-7878000D01*
X15560000Y-7838000D02*
X15640000Y-7838000D01*
D11*
X15625000Y-7798000D02*
X15575000Y-7798000D01*
X15625000Y-7878000D02*
X15575000Y-7878000D01*
X15575000Y-7798000D02*
G75*
G03*
X15575000Y-7878000I0J-40000D01*
G01*
X15625000Y-7878000D02*
G75*
G03*
X15625000Y-7798000I0J40000D01*
G01*
D14*
X15600000Y-8100000D02*
X15600000Y-8180000D01*
X15560000Y-8140000D02*
X15640000Y-8140000D01*
D11*
X15625000Y-8100000D02*
X15575000Y-8100000D01*
X15625000Y-8180000D02*
X15575000Y-8180000D01*
X15575000Y-8100000D02*
G75*
G03*
X15575000Y-8180000I0J-40000D01*
G01*
X15625000Y-8180000D02*
G75*
G03*
X15625000Y-8100000I0J40000D01*
G01*
D14*
X15600000Y-8560000D02*
X15600000Y-8640000D01*
X15560000Y-8600000D02*
X15640000Y-8600000D01*
D11*
X15625000Y-8560000D02*
X15575000Y-8560000D01*
X15625000Y-8640000D02*
X15575000Y-8640000D01*
X15575000Y-8560000D02*
G75*
G03*
X15575000Y-8640000I0J-40000D01*
G01*
X15625000Y-8640000D02*
G75*
G03*
X15625000Y-8560000I0J40000D01*
G01*
D15*
X10212956Y-5325056D02*
X10212956Y-5254344D01*
X10142244Y-5254344D01*
X10142244Y-5325056D01*
X10212956Y-5325056D01*
D11*
X10227600Y-5364700D02*
X10227600Y-5214700D01*
X10127600Y-5364700D02*
X10127600Y-5214700D01*
X10227600Y-5214700D02*
G75*
G03*
X10127600Y-5214700I-50000J0D01*
G01*
X10127600Y-5364700D02*
G75*
G03*
X10227600Y-5364700I50000J0D01*
G01*
D15*
X10897956Y-5245056D02*
X10897956Y-5174344D01*
X10827244Y-5174344D01*
X10827244Y-5245056D01*
X10897956Y-5245056D01*
D11*
X10962600Y-5159700D02*
X10762600Y-5159700D01*
X10962600Y-5259700D02*
X10762600Y-5259700D01*
X10762600Y-5159700D02*
G75*
G03*
X10762600Y-5259700I0J-50000D01*
G01*
X10962600Y-5259700D02*
G75*
G03*
X10962600Y-5159700I0J50000D01*
G01*
D15*
X11582956Y-5325056D02*
X11582956Y-5254344D01*
X11512244Y-5254344D01*
X11512244Y-5325056D01*
X11582956Y-5325056D01*
D11*
X11597600Y-5364700D02*
X11597600Y-5214700D01*
X11497600Y-5364700D02*
X11497600Y-5214700D01*
X11597600Y-5214700D02*
G75*
G03*
X11497600Y-5214700I-50000J0D01*
G01*
X11497600Y-5364700D02*
G75*
G03*
X11597600Y-5364700I50000J0D01*
G01*
D15*
X11914956Y-4955356D02*
X11914956Y-4884644D01*
X11844244Y-4884644D01*
X11844244Y-4955356D01*
X11914956Y-4955356D01*
X12168956Y-4955356D02*
X12168956Y-4884644D01*
X12098244Y-4884644D01*
X12098244Y-4955356D01*
X12168956Y-4955356D01*
X12422956Y-4955356D02*
X12422956Y-4884644D01*
X12352244Y-4884644D01*
X12352244Y-4955356D01*
X12422956Y-4955356D01*
X12676956Y-4955356D02*
X12676956Y-4884644D01*
X12606244Y-4884644D01*
X12606244Y-4955356D01*
X12676956Y-4955356D01*
X12829356Y-9781356D02*
X12829356Y-9710644D01*
X12758644Y-9710644D01*
X12758644Y-9781356D01*
X12829356Y-9781356D01*
X12930956Y-4955356D02*
X12930956Y-4884644D01*
X12860244Y-4884644D01*
X12860244Y-4955356D01*
X12930956Y-4955356D01*
X13083356Y-9781356D02*
X13083356Y-9710644D01*
X13012644Y-9710644D01*
X13012644Y-9781356D01*
X13083356Y-9781356D01*
X13184956Y-4955356D02*
X13184956Y-4884644D01*
X13114244Y-4884644D01*
X13114244Y-4955356D01*
X13184956Y-4955356D01*
X13337356Y-9781356D02*
X13337356Y-9710644D01*
X13266644Y-9710644D01*
X13266644Y-9781356D01*
X13337356Y-9781356D01*
X13438956Y-4955356D02*
X13438956Y-4884644D01*
X13368244Y-4884644D01*
X13368244Y-4955356D01*
X13438956Y-4955356D01*
X13591356Y-9781356D02*
X13591356Y-9710644D01*
X13520644Y-9710644D01*
X13520644Y-9781356D01*
X13591356Y-9781356D01*
X13692956Y-4955356D02*
X13692956Y-4884644D01*
X13622244Y-4884644D01*
X13622244Y-4955356D01*
X13692956Y-4955356D01*
X13845356Y-9781356D02*
X13845356Y-9710644D01*
X13774644Y-9710644D01*
X13774644Y-9781356D01*
X13845356Y-9781356D01*
X13946956Y-4955356D02*
X13946956Y-4884644D01*
X13876244Y-4884644D01*
X13876244Y-4955356D01*
X13946956Y-4955356D01*
X14099356Y-9781356D02*
X14099356Y-9710644D01*
X14028644Y-9710644D01*
X14028644Y-9781356D01*
X14099356Y-9781356D01*
X14200956Y-4955356D02*
X14200956Y-4884644D01*
X14130244Y-4884644D01*
X14130244Y-4955356D01*
X14200956Y-4955356D01*
X14353356Y-9781356D02*
X14353356Y-9710644D01*
X14282644Y-9710644D01*
X14282644Y-9781356D01*
X14353356Y-9781356D01*
X14607356Y-4955356D02*
X14607356Y-4884644D01*
X14536644Y-4884644D01*
X14536644Y-4955356D01*
X14607356Y-4955356D01*
X14607356Y-9781356D02*
X14607356Y-9710644D01*
X14536644Y-9710644D01*
X14536644Y-9781356D01*
X14607356Y-9781356D01*
X14861356Y-4955356D02*
X14861356Y-4884644D01*
X14790644Y-4884644D01*
X14790644Y-4955356D01*
X14861356Y-4955356D01*
X15115356Y-4955356D02*
X15115356Y-4884644D01*
X15044644Y-4884644D01*
X15044644Y-4955356D01*
X15115356Y-4955356D01*
X15115356Y-9781356D02*
X15115356Y-9710644D01*
X15044644Y-9710644D01*
X15044644Y-9781356D01*
X15115356Y-9781356D01*
X15369356Y-4955356D02*
X15369356Y-4884644D01*
X15298644Y-4884644D01*
X15298644Y-4955356D01*
X15369356Y-4955356D01*
X15369356Y-9781356D02*
X15369356Y-9710644D01*
X15298644Y-9710644D01*
X15298644Y-9781356D01*
X15369356Y-9781356D01*
X15623356Y-4955356D02*
X15623356Y-4884644D01*
X15552644Y-4884644D01*
X15552644Y-4955356D01*
X15623356Y-4955356D01*
X15623356Y-9781356D02*
X15623356Y-9710644D01*
X15552644Y-9710644D01*
X15552644Y-9781356D01*
X15623356Y-9781356D01*
X15877356Y-4955356D02*
X15877356Y-4884644D01*
X15806644Y-4884644D01*
X15806644Y-4955356D01*
X15877356Y-4955356D01*
X15877356Y-9781356D02*
X15877356Y-9710644D01*
X15806644Y-9710644D01*
X15806644Y-9781356D01*
X15877356Y-9781356D01*
X16131356Y-4955356D02*
X16131356Y-4884644D01*
X16060644Y-4884644D01*
X16060644Y-4955356D01*
X16131356Y-4955356D01*
X16131356Y-9781356D02*
X16131356Y-9710644D01*
X16060644Y-9710644D01*
X16060644Y-9781356D01*
X16131356Y-9781356D01*
X16385356Y-4955356D02*
X16385356Y-4884644D01*
X16314644Y-4884644D01*
X16314644Y-4955356D01*
X16385356Y-4955356D01*
X16385356Y-7368356D02*
X16385356Y-7297644D01*
X16314644Y-7297644D01*
X16314644Y-7368356D01*
X16385356Y-7368356D01*
D11*
X16365000Y-7283000D02*
X16335000Y-7283000D01*
X16365000Y-7383000D02*
X16335000Y-7383000D01*
X16335000Y-7283000D02*
G75*
G03*
X16335000Y-7383000I0J-50000D01*
G01*
X16365000Y-7383000D02*
G75*
G03*
X16365000Y-7283000I0J50000D01*
G01*
D15*
X16385356Y-7918356D02*
X16385356Y-7847644D01*
X16314644Y-7847644D01*
X16314644Y-7918356D01*
X16385356Y-7918356D01*
D11*
X16365000Y-7833000D02*
X16335000Y-7833000D01*
X16365000Y-7933000D02*
X16335000Y-7933000D01*
X16335000Y-7833000D02*
G75*
G03*
X16335000Y-7933000I0J-50000D01*
G01*
X16365000Y-7933000D02*
G75*
G03*
X16365000Y-7833000I0J50000D01*
G01*
D15*
X16385356Y-8130356D02*
X16385356Y-8059644D01*
X16314644Y-8059644D01*
X16314644Y-8130356D01*
X16385356Y-8130356D01*
D11*
X16365000Y-8045000D02*
X16335000Y-8045000D01*
X16365000Y-8145000D02*
X16335000Y-8145000D01*
X16335000Y-8045000D02*
G75*
G03*
X16335000Y-8145000I0J-50000D01*
G01*
X16365000Y-8145000D02*
G75*
G03*
X16365000Y-8045000I0J50000D01*
G01*
D15*
X16385356Y-8680356D02*
X16385356Y-8609644D01*
X16314644Y-8609644D01*
X16314644Y-8680356D01*
X16385356Y-8680356D01*
D11*
X16365000Y-8595000D02*
X16335000Y-8595000D01*
X16365000Y-8695000D02*
X16335000Y-8695000D01*
X16335000Y-8595000D02*
G75*
G03*
X16335000Y-8695000I0J-50000D01*
G01*
X16365000Y-8695000D02*
G75*
G03*
X16365000Y-8595000I0J50000D01*
G01*
D15*
X16385356Y-9781356D02*
X16385356Y-9710644D01*
X16314644Y-9710644D01*
X16314644Y-9781356D01*
X16385356Y-9781356D01*
D16*
X12717800Y-5641900D02*
X12777300Y-5582400D01*
X12717800Y-5522900D01*
X12658300Y-5582400D01*
X12717800Y-5641900D01*
X12971800Y-5641900D02*
X13031300Y-5582400D01*
X12971800Y-5522900D01*
X12912300Y-5582400D01*
X12971800Y-5641900D01*
D11*
X10250119Y-10317976D02*
X10250119Y-10117976D01*
X10297738Y-10117976D01*
X10326310Y-10127500D01*
X10345357Y-10146548D01*
X10354881Y-10165595D01*
X10364405Y-10203690D01*
X10364405Y-10232262D01*
X10354881Y-10270357D01*
X10345357Y-10289405D01*
X10326310Y-10308452D01*
X10297738Y-10317976D01*
X10250119Y-10317976D01*
X10450119Y-10317976D02*
X10450119Y-10184643D01*
X10450119Y-10222738D02*
X10459643Y-10203690D01*
X10469167Y-10194167D01*
X10488214Y-10184643D01*
X10507262Y-10184643D01*
X10573929Y-10317976D02*
X10573929Y-10184643D01*
X10573929Y-10117976D02*
X10564405Y-10127500D01*
X10573929Y-10137024D01*
X10583452Y-10127500D01*
X10573929Y-10117976D01*
X10573929Y-10137024D01*
X10697738Y-10317976D02*
X10678690Y-10308452D01*
X10669167Y-10289405D01*
X10669167Y-10117976D01*
X10802500Y-10317976D02*
X10783452Y-10308452D01*
X10773929Y-10289405D01*
X10773929Y-10117976D01*
X11031071Y-10317976D02*
X11031071Y-10117976D01*
X11097738Y-10260833D01*
X11164405Y-10117976D01*
X11164405Y-10317976D01*
X11345357Y-10317976D02*
X11345357Y-10213214D01*
X11335833Y-10194167D01*
X11316786Y-10184643D01*
X11278690Y-10184643D01*
X11259643Y-10194167D01*
X11345357Y-10308452D02*
X11326309Y-10317976D01*
X11278690Y-10317976D01*
X11259643Y-10308452D01*
X11250119Y-10289405D01*
X11250119Y-10270357D01*
X11259643Y-10251310D01*
X11278690Y-10241786D01*
X11326309Y-10241786D01*
X11345357Y-10232262D01*
X11440595Y-10184643D02*
X11440595Y-10384643D01*
X11440595Y-10194167D02*
X11459643Y-10184643D01*
X11497738Y-10184643D01*
X11516786Y-10194167D01*
X11526309Y-10203690D01*
X11535833Y-10222738D01*
X11535833Y-10279881D01*
X11526309Y-10298929D01*
X11516786Y-10308452D01*
X11497738Y-10317976D01*
X11459643Y-10317976D01*
X11440595Y-10308452D01*
X11621548Y-10298929D02*
X11631071Y-10308452D01*
X11621548Y-10317976D01*
X11612024Y-10308452D01*
X11621548Y-10298929D01*
X11621548Y-10317976D01*
X11621548Y-10194167D02*
X11631071Y-10203690D01*
X11621548Y-10213214D01*
X11612024Y-10203690D01*
X11621548Y-10194167D01*
X11621548Y-10213214D01*
D12*
X9952500Y-10627500D02*
X9992500Y-10667500D01*
X9992500Y-10627500D02*
X9952500Y-10667500D01*
D11*
X10288214Y-10537976D02*
X10307262Y-10537976D01*
X10326310Y-10547500D01*
X10335833Y-10557024D01*
X10345357Y-10576071D01*
X10354881Y-10614167D01*
X10354881Y-10661786D01*
X10345357Y-10699881D01*
X10335833Y-10718929D01*
X10326310Y-10728452D01*
X10307262Y-10737976D01*
X10288214Y-10737976D01*
X10269167Y-10728452D01*
X10259643Y-10718929D01*
X10250119Y-10699881D01*
X10240595Y-10661786D01*
X10240595Y-10614167D01*
X10250119Y-10576071D01*
X10259643Y-10557024D01*
X10269167Y-10547500D01*
X10288214Y-10537976D01*
X10440595Y-10718929D02*
X10450119Y-10728452D01*
X10440595Y-10737976D01*
X10431071Y-10728452D01*
X10440595Y-10718929D01*
X10440595Y-10737976D01*
X10621548Y-10604643D02*
X10621548Y-10737976D01*
X10573929Y-10528452D02*
X10526310Y-10671310D01*
X10650119Y-10671310D01*
X10764405Y-10537976D02*
X10783452Y-10537976D01*
X10802500Y-10547500D01*
X10812024Y-10557024D01*
X10821548Y-10576071D01*
X10831071Y-10614167D01*
X10831071Y-10661786D01*
X10821548Y-10699881D01*
X10812024Y-10718929D01*
X10802500Y-10728452D01*
X10783452Y-10737976D01*
X10764405Y-10737976D01*
X10745357Y-10728452D01*
X10735833Y-10718929D01*
X10726310Y-10699881D01*
X10716786Y-10661786D01*
X10716786Y-10614167D01*
X10726310Y-10576071D01*
X10735833Y-10557024D01*
X10745357Y-10547500D01*
X10764405Y-10537976D01*
X10954881Y-10537976D02*
X10973929Y-10537976D01*
X10992976Y-10547500D01*
X11002500Y-10557024D01*
X11012024Y-10576071D01*
X11021548Y-10614167D01*
X11021548Y-10661786D01*
X11012024Y-10699881D01*
X11002500Y-10718929D01*
X10992976Y-10728452D01*
X10973929Y-10737976D01*
X10954881Y-10737976D01*
X10935833Y-10728452D01*
X10926310Y-10718929D01*
X10916786Y-10699881D01*
X10907262Y-10661786D01*
X10907262Y-10614167D01*
X10916786Y-10576071D01*
X10926310Y-10557024D01*
X10935833Y-10547500D01*
X10954881Y-10537976D01*
X11107262Y-10737976D02*
X11107262Y-10604643D01*
X11107262Y-10623690D02*
X11116786Y-10614167D01*
X11135833Y-10604643D01*
X11164405Y-10604643D01*
X11183452Y-10614167D01*
X11192976Y-10633214D01*
X11192976Y-10737976D01*
X11192976Y-10633214D02*
X11202500Y-10614167D01*
X11221548Y-10604643D01*
X11250119Y-10604643D01*
X11269167Y-10614167D01*
X11278690Y-10633214D01*
X11278690Y-10737976D01*
X11373928Y-10737976D02*
X11373928Y-10604643D01*
X11373928Y-10623690D02*
X11383452Y-10614167D01*
X11402500Y-10604643D01*
X11431071Y-10604643D01*
X11450119Y-10614167D01*
X11459643Y-10633214D01*
X11459643Y-10737976D01*
X11459643Y-10633214D02*
X11469167Y-10614167D01*
X11488214Y-10604643D01*
X11516786Y-10604643D01*
X11535833Y-10614167D01*
X11545357Y-10633214D01*
X11545357Y-10737976D01*
X11935833Y-10528452D02*
X11764405Y-10785595D01*
X12192976Y-10537976D02*
X12212024Y-10537976D01*
X12231071Y-10547500D01*
X12240595Y-10557024D01*
X12250119Y-10576071D01*
X12259643Y-10614167D01*
X12259643Y-10661786D01*
X12250119Y-10699881D01*
X12240595Y-10718929D01*
X12231071Y-10728452D01*
X12212024Y-10737976D01*
X12192976Y-10737976D01*
X12173928Y-10728452D01*
X12164405Y-10718929D01*
X12154881Y-10699881D01*
X12145357Y-10661786D01*
X12145357Y-10614167D01*
X12154881Y-10576071D01*
X12164405Y-10557024D01*
X12173928Y-10547500D01*
X12192976Y-10537976D01*
X12345357Y-10718929D02*
X12354881Y-10728452D01*
X12345357Y-10737976D01*
X12335833Y-10728452D01*
X12345357Y-10718929D01*
X12345357Y-10737976D01*
X12478690Y-10537976D02*
X12497738Y-10537976D01*
X12516786Y-10547500D01*
X12526309Y-10557024D01*
X12535833Y-10576071D01*
X12545357Y-10614167D01*
X12545357Y-10661786D01*
X12535833Y-10699881D01*
X12526309Y-10718929D01*
X12516786Y-10728452D01*
X12497738Y-10737976D01*
X12478690Y-10737976D01*
X12459643Y-10728452D01*
X12450119Y-10718929D01*
X12440595Y-10699881D01*
X12431071Y-10661786D01*
X12431071Y-10614167D01*
X12440595Y-10576071D01*
X12450119Y-10557024D01*
X12459643Y-10547500D01*
X12478690Y-10537976D01*
X12735833Y-10737976D02*
X12621548Y-10737976D01*
X12678690Y-10737976D02*
X12678690Y-10537976D01*
X12659643Y-10566548D01*
X12640595Y-10585595D01*
X12621548Y-10595119D01*
X12916786Y-10537976D02*
X12821548Y-10537976D01*
X12812024Y-10633214D01*
X12821548Y-10623690D01*
X12840595Y-10614167D01*
X12888214Y-10614167D01*
X12907262Y-10623690D01*
X12916786Y-10633214D01*
X12926309Y-10652262D01*
X12926309Y-10699881D01*
X12916786Y-10718929D01*
X12907262Y-10728452D01*
X12888214Y-10737976D01*
X12840595Y-10737976D01*
X12821548Y-10728452D01*
X12812024Y-10718929D01*
X12992976Y-10537976D02*
X13126309Y-10537976D01*
X13040595Y-10737976D01*
X13192976Y-10537976D02*
X13192976Y-10576071D01*
X13269167Y-10537976D02*
X13269167Y-10576071D01*
X13564405Y-10814167D02*
X13554881Y-10804643D01*
X13535833Y-10776071D01*
X13526309Y-10757024D01*
X13516786Y-10728452D01*
X13507262Y-10680833D01*
X13507262Y-10642738D01*
X13516786Y-10595119D01*
X13526309Y-10566548D01*
X13535833Y-10547500D01*
X13554881Y-10518929D01*
X13564405Y-10509405D01*
X13726309Y-10537976D02*
X13688214Y-10537976D01*
X13669167Y-10547500D01*
X13659643Y-10557024D01*
X13640595Y-10585595D01*
X13631071Y-10623690D01*
X13631071Y-10699881D01*
X13640595Y-10718929D01*
X13650119Y-10728452D01*
X13669167Y-10737976D01*
X13707262Y-10737976D01*
X13726309Y-10728452D01*
X13735833Y-10718929D01*
X13745357Y-10699881D01*
X13745357Y-10652262D01*
X13735833Y-10633214D01*
X13726309Y-10623690D01*
X13707262Y-10614167D01*
X13669167Y-10614167D01*
X13650119Y-10623690D01*
X13640595Y-10633214D01*
X13631071Y-10652262D01*
X13983452Y-10737976D02*
X13983452Y-10537976D01*
X14069167Y-10737976D02*
X14069167Y-10633214D01*
X14059643Y-10614167D01*
X14040595Y-10604643D01*
X14012024Y-10604643D01*
X13992976Y-10614167D01*
X13983452Y-10623690D01*
X14192976Y-10737976D02*
X14173928Y-10728452D01*
X14164405Y-10718929D01*
X14154881Y-10699881D01*
X14154881Y-10642738D01*
X14164405Y-10623690D01*
X14173928Y-10614167D01*
X14192976Y-10604643D01*
X14221548Y-10604643D01*
X14240595Y-10614167D01*
X14250119Y-10623690D01*
X14259643Y-10642738D01*
X14259643Y-10699881D01*
X14250119Y-10718929D01*
X14240595Y-10728452D01*
X14221548Y-10737976D01*
X14192976Y-10737976D01*
X14373928Y-10737976D02*
X14354881Y-10728452D01*
X14345357Y-10709405D01*
X14345357Y-10537976D01*
X14526309Y-10728452D02*
X14507262Y-10737976D01*
X14469167Y-10737976D01*
X14450119Y-10728452D01*
X14440595Y-10709405D01*
X14440595Y-10633214D01*
X14450119Y-10614167D01*
X14469167Y-10604643D01*
X14507262Y-10604643D01*
X14526309Y-10614167D01*
X14535833Y-10633214D01*
X14535833Y-10652262D01*
X14440595Y-10671310D01*
X14612024Y-10728452D02*
X14631071Y-10737976D01*
X14669167Y-10737976D01*
X14688214Y-10728452D01*
X14697738Y-10709405D01*
X14697738Y-10699881D01*
X14688214Y-10680833D01*
X14669167Y-10671310D01*
X14640595Y-10671310D01*
X14621548Y-10661786D01*
X14612024Y-10642738D01*
X14612024Y-10633214D01*
X14621548Y-10614167D01*
X14640595Y-10604643D01*
X14669167Y-10604643D01*
X14688214Y-10614167D01*
X14764405Y-10814167D02*
X14773928Y-10804643D01*
X14792976Y-10776071D01*
X14802500Y-10757024D01*
X14812024Y-10728452D01*
X14821548Y-10680833D01*
X14821548Y-10642738D01*
X14812024Y-10595119D01*
X14802500Y-10566548D01*
X14792976Y-10547500D01*
X14773928Y-10518929D01*
X14764405Y-10509405D01*
D13*
X9992500Y-10911500D02*
G75*
G03*
X9992500Y-10911500I-37500J0D01*
G01*
D11*
X10288214Y-10801976D02*
X10307262Y-10801976D01*
X10326310Y-10811500D01*
X10335833Y-10821024D01*
X10345357Y-10840071D01*
X10354881Y-10878167D01*
X10354881Y-10925786D01*
X10345357Y-10963881D01*
X10335833Y-10982929D01*
X10326310Y-10992452D01*
X10307262Y-11001976D01*
X10288214Y-11001976D01*
X10269167Y-10992452D01*
X10259643Y-10982929D01*
X10250119Y-10963881D01*
X10240595Y-10925786D01*
X10240595Y-10878167D01*
X10250119Y-10840071D01*
X10259643Y-10821024D01*
X10269167Y-10811500D01*
X10288214Y-10801976D01*
X10440595Y-10982929D02*
X10450119Y-10992452D01*
X10440595Y-11001976D01*
X10431071Y-10992452D01*
X10440595Y-10982929D01*
X10440595Y-11001976D01*
X10516786Y-10801976D02*
X10650119Y-10801976D01*
X10564405Y-11001976D01*
X10821548Y-10801976D02*
X10726310Y-10801976D01*
X10716786Y-10897214D01*
X10726310Y-10887690D01*
X10745357Y-10878167D01*
X10792976Y-10878167D01*
X10812024Y-10887690D01*
X10821548Y-10897214D01*
X10831071Y-10916262D01*
X10831071Y-10963881D01*
X10821548Y-10982929D01*
X10812024Y-10992452D01*
X10792976Y-11001976D01*
X10745357Y-11001976D01*
X10726310Y-10992452D01*
X10716786Y-10982929D01*
X10954881Y-10801976D02*
X10973929Y-10801976D01*
X10992976Y-10811500D01*
X11002500Y-10821024D01*
X11012024Y-10840071D01*
X11021548Y-10878167D01*
X11021548Y-10925786D01*
X11012024Y-10963881D01*
X11002500Y-10982929D01*
X10992976Y-10992452D01*
X10973929Y-11001976D01*
X10954881Y-11001976D01*
X10935833Y-10992452D01*
X10926310Y-10982929D01*
X10916786Y-10963881D01*
X10907262Y-10925786D01*
X10907262Y-10878167D01*
X10916786Y-10840071D01*
X10926310Y-10821024D01*
X10935833Y-10811500D01*
X10954881Y-10801976D01*
X11107262Y-11001976D02*
X11107262Y-10868643D01*
X11107262Y-10887690D02*
X11116786Y-10878167D01*
X11135833Y-10868643D01*
X11164405Y-10868643D01*
X11183452Y-10878167D01*
X11192976Y-10897214D01*
X11192976Y-11001976D01*
X11192976Y-10897214D02*
X11202500Y-10878167D01*
X11221548Y-10868643D01*
X11250119Y-10868643D01*
X11269167Y-10878167D01*
X11278690Y-10897214D01*
X11278690Y-11001976D01*
X11373928Y-11001976D02*
X11373928Y-10868643D01*
X11373928Y-10887690D02*
X11383452Y-10878167D01*
X11402500Y-10868643D01*
X11431071Y-10868643D01*
X11450119Y-10878167D01*
X11459643Y-10897214D01*
X11459643Y-11001976D01*
X11459643Y-10897214D02*
X11469167Y-10878167D01*
X11488214Y-10868643D01*
X11516786Y-10868643D01*
X11535833Y-10878167D01*
X11545357Y-10897214D01*
X11545357Y-11001976D01*
X11935833Y-10792452D02*
X11764405Y-11049595D01*
X12192976Y-10801976D02*
X12212024Y-10801976D01*
X12231071Y-10811500D01*
X12240595Y-10821024D01*
X12250119Y-10840071D01*
X12259643Y-10878167D01*
X12259643Y-10925786D01*
X12250119Y-10963881D01*
X12240595Y-10982929D01*
X12231071Y-10992452D01*
X12212024Y-11001976D01*
X12192976Y-11001976D01*
X12173928Y-10992452D01*
X12164405Y-10982929D01*
X12154881Y-10963881D01*
X12145357Y-10925786D01*
X12145357Y-10878167D01*
X12154881Y-10840071D01*
X12164405Y-10821024D01*
X12173928Y-10811500D01*
X12192976Y-10801976D01*
X12345357Y-10982929D02*
X12354881Y-10992452D01*
X12345357Y-11001976D01*
X12335833Y-10992452D01*
X12345357Y-10982929D01*
X12345357Y-11001976D01*
X12478690Y-10801976D02*
X12497738Y-10801976D01*
X12516786Y-10811500D01*
X12526309Y-10821024D01*
X12535833Y-10840071D01*
X12545357Y-10878167D01*
X12545357Y-10925786D01*
X12535833Y-10963881D01*
X12526309Y-10982929D01*
X12516786Y-10992452D01*
X12497738Y-11001976D01*
X12478690Y-11001976D01*
X12459643Y-10992452D01*
X12450119Y-10982929D01*
X12440595Y-10963881D01*
X12431071Y-10925786D01*
X12431071Y-10878167D01*
X12440595Y-10840071D01*
X12450119Y-10821024D01*
X12459643Y-10811500D01*
X12478690Y-10801976D01*
X12621548Y-10821024D02*
X12631071Y-10811500D01*
X12650119Y-10801976D01*
X12697738Y-10801976D01*
X12716786Y-10811500D01*
X12726309Y-10821024D01*
X12735833Y-10840071D01*
X12735833Y-10859119D01*
X12726309Y-10887690D01*
X12612024Y-11001976D01*
X12735833Y-11001976D01*
X12831071Y-11001976D02*
X12869167Y-11001976D01*
X12888214Y-10992452D01*
X12897738Y-10982929D01*
X12916786Y-10954357D01*
X12926309Y-10916262D01*
X12926309Y-10840071D01*
X12916786Y-10821024D01*
X12907262Y-10811500D01*
X12888214Y-10801976D01*
X12850119Y-10801976D01*
X12831071Y-10811500D01*
X12821548Y-10821024D01*
X12812024Y-10840071D01*
X12812024Y-10887690D01*
X12821548Y-10906738D01*
X12831071Y-10916262D01*
X12850119Y-10925786D01*
X12888214Y-10925786D01*
X12907262Y-10916262D01*
X12916786Y-10906738D01*
X12926309Y-10887690D01*
X13107262Y-10801976D02*
X13012024Y-10801976D01*
X13002500Y-10897214D01*
X13012024Y-10887690D01*
X13031071Y-10878167D01*
X13078690Y-10878167D01*
X13097738Y-10887690D01*
X13107262Y-10897214D01*
X13116786Y-10916262D01*
X13116786Y-10963881D01*
X13107262Y-10982929D01*
X13097738Y-10992452D01*
X13078690Y-11001976D01*
X13031071Y-11001976D01*
X13012024Y-10992452D01*
X13002500Y-10982929D01*
X13192976Y-10801976D02*
X13192976Y-10840071D01*
X13269167Y-10801976D02*
X13269167Y-10840071D01*
X13564405Y-11078167D02*
X13554881Y-11068643D01*
X13535833Y-11040071D01*
X13526309Y-11021024D01*
X13516786Y-10992452D01*
X13507262Y-10944833D01*
X13507262Y-10906738D01*
X13516786Y-10859119D01*
X13526309Y-10830548D01*
X13535833Y-10811500D01*
X13554881Y-10782929D01*
X13564405Y-10773405D01*
X13621548Y-10801976D02*
X13745357Y-10801976D01*
X13678690Y-10878167D01*
X13707262Y-10878167D01*
X13726309Y-10887690D01*
X13735833Y-10897214D01*
X13745357Y-10916262D01*
X13745357Y-10963881D01*
X13735833Y-10982929D01*
X13726309Y-10992452D01*
X13707262Y-11001976D01*
X13650119Y-11001976D01*
X13631071Y-10992452D01*
X13621548Y-10982929D01*
X13983452Y-11001976D02*
X13983452Y-10801976D01*
X14069167Y-11001976D02*
X14069167Y-10897214D01*
X14059643Y-10878167D01*
X14040595Y-10868643D01*
X14012024Y-10868643D01*
X13992976Y-10878167D01*
X13983452Y-10887690D01*
X14192976Y-11001976D02*
X14173928Y-10992452D01*
X14164405Y-10982929D01*
X14154881Y-10963881D01*
X14154881Y-10906738D01*
X14164405Y-10887690D01*
X14173928Y-10878167D01*
X14192976Y-10868643D01*
X14221548Y-10868643D01*
X14240595Y-10878167D01*
X14250119Y-10887690D01*
X14259643Y-10906738D01*
X14259643Y-10963881D01*
X14250119Y-10982929D01*
X14240595Y-10992452D01*
X14221548Y-11001976D01*
X14192976Y-11001976D01*
X14373928Y-11001976D02*
X14354881Y-10992452D01*
X14345357Y-10973405D01*
X14345357Y-10801976D01*
X14526309Y-10992452D02*
X14507262Y-11001976D01*
X14469167Y-11001976D01*
X14450119Y-10992452D01*
X14440595Y-10973405D01*
X14440595Y-10897214D01*
X14450119Y-10878167D01*
X14469167Y-10868643D01*
X14507262Y-10868643D01*
X14526309Y-10878167D01*
X14535833Y-10897214D01*
X14535833Y-10916262D01*
X14440595Y-10935310D01*
X14612024Y-10992452D02*
X14631071Y-11001976D01*
X14669167Y-11001976D01*
X14688214Y-10992452D01*
X14697738Y-10973405D01*
X14697738Y-10963881D01*
X14688214Y-10944833D01*
X14669167Y-10935310D01*
X14640595Y-10935310D01*
X14621548Y-10925786D01*
X14612024Y-10906738D01*
X14612024Y-10897214D01*
X14621548Y-10878167D01*
X14640595Y-10868643D01*
X14669167Y-10868643D01*
X14688214Y-10878167D01*
X14764405Y-11078167D02*
X14773928Y-11068643D01*
X14792976Y-11040071D01*
X14802500Y-11021024D01*
X14812024Y-10992452D01*
X14821548Y-10944833D01*
X14821548Y-10906738D01*
X14812024Y-10859119D01*
X14802500Y-10830548D01*
X14792976Y-10811500D01*
X14773928Y-10782929D01*
X14764405Y-10773405D01*
D14*
X9952500Y-11135500D02*
X9952500Y-11215500D01*
X9912500Y-11175500D02*
X9992500Y-11175500D01*
D11*
X10288214Y-11065976D02*
X10307262Y-11065976D01*
X10326310Y-11075500D01*
X10335833Y-11085024D01*
X10345357Y-11104071D01*
X10354881Y-11142167D01*
X10354881Y-11189786D01*
X10345357Y-11227881D01*
X10335833Y-11246928D01*
X10326310Y-11256452D01*
X10307262Y-11265976D01*
X10288214Y-11265976D01*
X10269167Y-11256452D01*
X10259643Y-11246928D01*
X10250119Y-11227881D01*
X10240595Y-11189786D01*
X10240595Y-11142167D01*
X10250119Y-11104071D01*
X10259643Y-11085024D01*
X10269167Y-11075500D01*
X10288214Y-11065976D01*
X10440595Y-11246928D02*
X10450119Y-11256452D01*
X10440595Y-11265976D01*
X10431071Y-11256452D01*
X10440595Y-11246928D01*
X10440595Y-11265976D01*
X10564405Y-11151690D02*
X10545357Y-11142167D01*
X10535833Y-11132643D01*
X10526310Y-11113595D01*
X10526310Y-11104071D01*
X10535833Y-11085024D01*
X10545357Y-11075500D01*
X10564405Y-11065976D01*
X10602500Y-11065976D01*
X10621548Y-11075500D01*
X10631071Y-11085024D01*
X10640595Y-11104071D01*
X10640595Y-11113595D01*
X10631071Y-11132643D01*
X10621548Y-11142167D01*
X10602500Y-11151690D01*
X10564405Y-11151690D01*
X10545357Y-11161214D01*
X10535833Y-11170738D01*
X10526310Y-11189786D01*
X10526310Y-11227881D01*
X10535833Y-11246928D01*
X10545357Y-11256452D01*
X10564405Y-11265976D01*
X10602500Y-11265976D01*
X10621548Y-11256452D01*
X10631071Y-11246928D01*
X10640595Y-11227881D01*
X10640595Y-11189786D01*
X10631071Y-11170738D01*
X10621548Y-11161214D01*
X10602500Y-11151690D01*
X10764405Y-11065976D02*
X10783452Y-11065976D01*
X10802500Y-11075500D01*
X10812024Y-11085024D01*
X10821548Y-11104071D01*
X10831071Y-11142167D01*
X10831071Y-11189786D01*
X10821548Y-11227881D01*
X10812024Y-11246928D01*
X10802500Y-11256452D01*
X10783452Y-11265976D01*
X10764405Y-11265976D01*
X10745357Y-11256452D01*
X10735833Y-11246928D01*
X10726310Y-11227881D01*
X10716786Y-11189786D01*
X10716786Y-11142167D01*
X10726310Y-11104071D01*
X10735833Y-11085024D01*
X10745357Y-11075500D01*
X10764405Y-11065976D01*
X10954881Y-11065976D02*
X10973929Y-11065976D01*
X10992976Y-11075500D01*
X11002500Y-11085024D01*
X11012024Y-11104071D01*
X11021548Y-11142167D01*
X11021548Y-11189786D01*
X11012024Y-11227881D01*
X11002500Y-11246928D01*
X10992976Y-11256452D01*
X10973929Y-11265976D01*
X10954881Y-11265976D01*
X10935833Y-11256452D01*
X10926310Y-11246928D01*
X10916786Y-11227881D01*
X10907262Y-11189786D01*
X10907262Y-11142167D01*
X10916786Y-11104071D01*
X10926310Y-11085024D01*
X10935833Y-11075500D01*
X10954881Y-11065976D01*
X11107262Y-11265976D02*
X11107262Y-11132643D01*
X11107262Y-11151690D02*
X11116786Y-11142167D01*
X11135833Y-11132643D01*
X11164405Y-11132643D01*
X11183452Y-11142167D01*
X11192976Y-11161214D01*
X11192976Y-11265976D01*
X11192976Y-11161214D02*
X11202500Y-11142167D01*
X11221548Y-11132643D01*
X11250119Y-11132643D01*
X11269167Y-11142167D01*
X11278690Y-11161214D01*
X11278690Y-11265976D01*
X11373928Y-11265976D02*
X11373928Y-11132643D01*
X11373928Y-11151690D02*
X11383452Y-11142167D01*
X11402500Y-11132643D01*
X11431071Y-11132643D01*
X11450119Y-11142167D01*
X11459643Y-11161214D01*
X11459643Y-11265976D01*
X11459643Y-11161214D02*
X11469167Y-11142167D01*
X11488214Y-11132643D01*
X11516786Y-11132643D01*
X11535833Y-11142167D01*
X11545357Y-11161214D01*
X11545357Y-11265976D01*
X11935833Y-11056452D02*
X11764405Y-11313595D01*
X12192976Y-11065976D02*
X12212024Y-11065976D01*
X12231071Y-11075500D01*
X12240595Y-11085024D01*
X12250119Y-11104071D01*
X12259643Y-11142167D01*
X12259643Y-11189786D01*
X12250119Y-11227881D01*
X12240595Y-11246928D01*
X12231071Y-11256452D01*
X12212024Y-11265976D01*
X12192976Y-11265976D01*
X12173928Y-11256452D01*
X12164405Y-11246928D01*
X12154881Y-11227881D01*
X12145357Y-11189786D01*
X12145357Y-11142167D01*
X12154881Y-11104071D01*
X12164405Y-11085024D01*
X12173928Y-11075500D01*
X12192976Y-11065976D01*
X12345357Y-11246928D02*
X12354881Y-11256452D01*
X12345357Y-11265976D01*
X12335833Y-11256452D01*
X12345357Y-11246928D01*
X12345357Y-11265976D01*
X12478690Y-11065976D02*
X12497738Y-11065976D01*
X12516786Y-11075500D01*
X12526309Y-11085024D01*
X12535833Y-11104071D01*
X12545357Y-11142167D01*
X12545357Y-11189786D01*
X12535833Y-11227881D01*
X12526309Y-11246928D01*
X12516786Y-11256452D01*
X12497738Y-11265976D01*
X12478690Y-11265976D01*
X12459643Y-11256452D01*
X12450119Y-11246928D01*
X12440595Y-11227881D01*
X12431071Y-11189786D01*
X12431071Y-11142167D01*
X12440595Y-11104071D01*
X12450119Y-11085024D01*
X12459643Y-11075500D01*
X12478690Y-11065976D01*
X12612024Y-11065976D02*
X12735833Y-11065976D01*
X12669167Y-11142167D01*
X12697738Y-11142167D01*
X12716786Y-11151690D01*
X12726309Y-11161214D01*
X12735833Y-11180262D01*
X12735833Y-11227881D01*
X12726309Y-11246928D01*
X12716786Y-11256452D01*
X12697738Y-11265976D01*
X12640595Y-11265976D01*
X12621548Y-11256452D01*
X12612024Y-11246928D01*
X12926309Y-11265976D02*
X12812024Y-11265976D01*
X12869167Y-11265976D02*
X12869167Y-11065976D01*
X12850119Y-11094548D01*
X12831071Y-11113595D01*
X12812024Y-11123119D01*
X13107262Y-11065976D02*
X13012024Y-11065976D01*
X13002500Y-11161214D01*
X13012024Y-11151690D01*
X13031071Y-11142167D01*
X13078690Y-11142167D01*
X13097738Y-11151690D01*
X13107262Y-11161214D01*
X13116786Y-11180262D01*
X13116786Y-11227881D01*
X13107262Y-11246928D01*
X13097738Y-11256452D01*
X13078690Y-11265976D01*
X13031071Y-11265976D01*
X13012024Y-11256452D01*
X13002500Y-11246928D01*
X13192976Y-11065976D02*
X13192976Y-11104071D01*
X13269167Y-11065976D02*
X13269167Y-11104071D01*
X13564405Y-11342167D02*
X13554881Y-11332643D01*
X13535833Y-11304071D01*
X13526309Y-11285024D01*
X13516786Y-11256452D01*
X13507262Y-11208833D01*
X13507262Y-11170738D01*
X13516786Y-11123119D01*
X13526309Y-11094548D01*
X13535833Y-11075500D01*
X13554881Y-11046929D01*
X13564405Y-11037405D01*
X13621548Y-11065976D02*
X13745357Y-11065976D01*
X13678690Y-11142167D01*
X13707262Y-11142167D01*
X13726309Y-11151690D01*
X13735833Y-11161214D01*
X13745357Y-11180262D01*
X13745357Y-11227881D01*
X13735833Y-11246928D01*
X13726309Y-11256452D01*
X13707262Y-11265976D01*
X13650119Y-11265976D01*
X13631071Y-11256452D01*
X13621548Y-11246928D01*
X13916786Y-11065976D02*
X13878690Y-11065976D01*
X13859643Y-11075500D01*
X13850119Y-11085024D01*
X13831071Y-11113595D01*
X13821548Y-11151690D01*
X13821548Y-11227881D01*
X13831071Y-11246928D01*
X13840595Y-11256452D01*
X13859643Y-11265976D01*
X13897738Y-11265976D01*
X13916786Y-11256452D01*
X13926309Y-11246928D01*
X13935833Y-11227881D01*
X13935833Y-11180262D01*
X13926309Y-11161214D01*
X13916786Y-11151690D01*
X13897738Y-11142167D01*
X13859643Y-11142167D01*
X13840595Y-11151690D01*
X13831071Y-11161214D01*
X13821548Y-11180262D01*
X14173928Y-11265976D02*
X14173928Y-11065976D01*
X14259643Y-11265976D02*
X14259643Y-11161214D01*
X14250119Y-11142167D01*
X14231071Y-11132643D01*
X14202500Y-11132643D01*
X14183452Y-11142167D01*
X14173928Y-11151690D01*
X14383452Y-11265976D02*
X14364405Y-11256452D01*
X14354881Y-11246928D01*
X14345357Y-11227881D01*
X14345357Y-11170738D01*
X14354881Y-11151690D01*
X14364405Y-11142167D01*
X14383452Y-11132643D01*
X14412024Y-11132643D01*
X14431071Y-11142167D01*
X14440595Y-11151690D01*
X14450119Y-11170738D01*
X14450119Y-11227881D01*
X14440595Y-11246928D01*
X14431071Y-11256452D01*
X14412024Y-11265976D01*
X14383452Y-11265976D01*
X14564405Y-11265976D02*
X14545357Y-11256452D01*
X14535833Y-11237405D01*
X14535833Y-11065976D01*
X14716786Y-11256452D02*
X14697738Y-11265976D01*
X14659643Y-11265976D01*
X14640595Y-11256452D01*
X14631071Y-11237405D01*
X14631071Y-11161214D01*
X14640595Y-11142167D01*
X14659643Y-11132643D01*
X14697738Y-11132643D01*
X14716786Y-11142167D01*
X14726309Y-11161214D01*
X14726309Y-11180262D01*
X14631071Y-11199309D01*
X14802500Y-11256452D02*
X14821548Y-11265976D01*
X14859643Y-11265976D01*
X14878690Y-11256452D01*
X14888214Y-11237405D01*
X14888214Y-11227881D01*
X14878690Y-11208833D01*
X14859643Y-11199309D01*
X14831071Y-11199309D01*
X14812024Y-11189786D01*
X14802500Y-11170738D01*
X14802500Y-11161214D01*
X14812024Y-11142167D01*
X14831071Y-11132643D01*
X14859643Y-11132643D01*
X14878690Y-11142167D01*
X15126309Y-11189786D02*
X15278690Y-11189786D01*
X15202500Y-11265976D02*
X15202500Y-11113595D01*
X15612024Y-11132643D02*
X15612024Y-11265976D01*
X15564405Y-11056452D02*
X15516786Y-11199309D01*
X15640595Y-11199309D01*
X15859643Y-11256452D02*
X15878690Y-11265976D01*
X15916786Y-11265976D01*
X15935833Y-11256452D01*
X15945357Y-11237405D01*
X15945357Y-11227881D01*
X15935833Y-11208833D01*
X15916786Y-11199309D01*
X15888214Y-11199309D01*
X15869167Y-11189786D01*
X15859643Y-11170738D01*
X15859643Y-11161214D01*
X15869167Y-11142167D01*
X15888214Y-11132643D01*
X15916786Y-11132643D01*
X15935833Y-11142167D01*
X16059643Y-11265976D02*
X16040595Y-11256452D01*
X16031071Y-11237405D01*
X16031071Y-11065976D01*
X16164405Y-11265976D02*
X16145357Y-11256452D01*
X16135833Y-11246928D01*
X16126309Y-11227881D01*
X16126309Y-11170738D01*
X16135833Y-11151690D01*
X16145357Y-11142167D01*
X16164405Y-11132643D01*
X16192976Y-11132643D01*
X16212024Y-11142167D01*
X16221548Y-11151690D01*
X16231071Y-11170738D01*
X16231071Y-11227881D01*
X16221548Y-11246928D01*
X16212024Y-11256452D01*
X16192976Y-11265976D01*
X16164405Y-11265976D01*
X16288214Y-11132643D02*
X16364405Y-11132643D01*
X16316786Y-11065976D02*
X16316786Y-11237405D01*
X16326309Y-11256452D01*
X16345357Y-11265976D01*
X16364405Y-11265976D01*
X16421548Y-11256452D02*
X16440595Y-11265976D01*
X16478690Y-11265976D01*
X16497738Y-11256452D01*
X16507262Y-11237405D01*
X16507262Y-11227881D01*
X16497738Y-11208833D01*
X16478690Y-11199309D01*
X16450119Y-11199309D01*
X16431071Y-11189786D01*
X16421548Y-11170738D01*
X16421548Y-11161214D01*
X16431071Y-11142167D01*
X16450119Y-11132643D01*
X16478690Y-11132643D01*
X16497738Y-11142167D01*
X16573928Y-11342167D02*
X16583452Y-11332643D01*
X16602500Y-11304071D01*
X16612024Y-11285024D01*
X16621548Y-11256452D01*
X16631071Y-11208833D01*
X16631071Y-11170738D01*
X16621548Y-11123119D01*
X16612024Y-11094548D01*
X16602500Y-11075500D01*
X16583452Y-11046929D01*
X16573928Y-11037405D01*
D15*
X9977856Y-11474856D02*
X9977856Y-11404144D01*
X9907144Y-11404144D01*
X9907144Y-11474856D01*
X9977856Y-11474856D01*
D11*
X10354881Y-11529976D02*
X10240595Y-11529976D01*
X10297738Y-11529976D02*
X10297738Y-11329976D01*
X10278690Y-11358548D01*
X10259643Y-11377595D01*
X10240595Y-11387119D01*
X10440595Y-11510928D02*
X10450119Y-11520452D01*
X10440595Y-11529976D01*
X10431071Y-11520452D01*
X10440595Y-11510928D01*
X10440595Y-11529976D01*
X10573929Y-11329976D02*
X10592976Y-11329976D01*
X10612024Y-11339500D01*
X10621548Y-11349024D01*
X10631071Y-11368071D01*
X10640595Y-11406167D01*
X10640595Y-11453786D01*
X10631071Y-11491881D01*
X10621548Y-11510928D01*
X10612024Y-11520452D01*
X10592976Y-11529976D01*
X10573929Y-11529976D01*
X10554881Y-11520452D01*
X10545357Y-11510928D01*
X10535833Y-11491881D01*
X10526310Y-11453786D01*
X10526310Y-11406167D01*
X10535833Y-11368071D01*
X10545357Y-11349024D01*
X10554881Y-11339500D01*
X10573929Y-11329976D01*
X10764405Y-11329976D02*
X10783452Y-11329976D01*
X10802500Y-11339500D01*
X10812024Y-11349024D01*
X10821548Y-11368071D01*
X10831071Y-11406167D01*
X10831071Y-11453786D01*
X10821548Y-11491881D01*
X10812024Y-11510928D01*
X10802500Y-11520452D01*
X10783452Y-11529976D01*
X10764405Y-11529976D01*
X10745357Y-11520452D01*
X10735833Y-11510928D01*
X10726310Y-11491881D01*
X10716786Y-11453786D01*
X10716786Y-11406167D01*
X10726310Y-11368071D01*
X10735833Y-11349024D01*
X10745357Y-11339500D01*
X10764405Y-11329976D01*
X10954881Y-11329976D02*
X10973929Y-11329976D01*
X10992976Y-11339500D01*
X11002500Y-11349024D01*
X11012024Y-11368071D01*
X11021548Y-11406167D01*
X11021548Y-11453786D01*
X11012024Y-11491881D01*
X11002500Y-11510928D01*
X10992976Y-11520452D01*
X10973929Y-11529976D01*
X10954881Y-11529976D01*
X10935833Y-11520452D01*
X10926310Y-11510928D01*
X10916786Y-11491881D01*
X10907262Y-11453786D01*
X10907262Y-11406167D01*
X10916786Y-11368071D01*
X10926310Y-11349024D01*
X10935833Y-11339500D01*
X10954881Y-11329976D01*
X11107262Y-11529976D02*
X11107262Y-11396643D01*
X11107262Y-11415690D02*
X11116786Y-11406167D01*
X11135833Y-11396643D01*
X11164405Y-11396643D01*
X11183452Y-11406167D01*
X11192976Y-11425214D01*
X11192976Y-11529976D01*
X11192976Y-11425214D02*
X11202500Y-11406167D01*
X11221548Y-11396643D01*
X11250119Y-11396643D01*
X11269167Y-11406167D01*
X11278690Y-11425214D01*
X11278690Y-11529976D01*
X11373928Y-11529976D02*
X11373928Y-11396643D01*
X11373928Y-11415690D02*
X11383452Y-11406167D01*
X11402500Y-11396643D01*
X11431071Y-11396643D01*
X11450119Y-11406167D01*
X11459643Y-11425214D01*
X11459643Y-11529976D01*
X11459643Y-11425214D02*
X11469167Y-11406167D01*
X11488214Y-11396643D01*
X11516786Y-11396643D01*
X11535833Y-11406167D01*
X11545357Y-11425214D01*
X11545357Y-11529976D01*
X11935833Y-11320452D02*
X11764405Y-11577595D01*
X12192976Y-11329976D02*
X12212024Y-11329976D01*
X12231071Y-11339500D01*
X12240595Y-11349024D01*
X12250119Y-11368071D01*
X12259643Y-11406167D01*
X12259643Y-11453786D01*
X12250119Y-11491881D01*
X12240595Y-11510928D01*
X12231071Y-11520452D01*
X12212024Y-11529976D01*
X12192976Y-11529976D01*
X12173928Y-11520452D01*
X12164405Y-11510928D01*
X12154881Y-11491881D01*
X12145357Y-11453786D01*
X12145357Y-11406167D01*
X12154881Y-11368071D01*
X12164405Y-11349024D01*
X12173928Y-11339500D01*
X12192976Y-11329976D01*
X12345357Y-11510928D02*
X12354881Y-11520452D01*
X12345357Y-11529976D01*
X12335833Y-11520452D01*
X12345357Y-11510928D01*
X12345357Y-11529976D01*
X12478690Y-11329976D02*
X12497738Y-11329976D01*
X12516786Y-11339500D01*
X12526309Y-11349024D01*
X12535833Y-11368071D01*
X12545357Y-11406167D01*
X12545357Y-11453786D01*
X12535833Y-11491881D01*
X12526309Y-11510928D01*
X12516786Y-11520452D01*
X12497738Y-11529976D01*
X12478690Y-11529976D01*
X12459643Y-11520452D01*
X12450119Y-11510928D01*
X12440595Y-11491881D01*
X12431071Y-11453786D01*
X12431071Y-11406167D01*
X12440595Y-11368071D01*
X12450119Y-11349024D01*
X12459643Y-11339500D01*
X12478690Y-11329976D01*
X12612024Y-11329976D02*
X12735833Y-11329976D01*
X12669167Y-11406167D01*
X12697738Y-11406167D01*
X12716786Y-11415690D01*
X12726309Y-11425214D01*
X12735833Y-11444262D01*
X12735833Y-11491881D01*
X12726309Y-11510928D01*
X12716786Y-11520452D01*
X12697738Y-11529976D01*
X12640595Y-11529976D01*
X12621548Y-11520452D01*
X12612024Y-11510928D01*
X12831071Y-11529976D02*
X12869167Y-11529976D01*
X12888214Y-11520452D01*
X12897738Y-11510928D01*
X12916786Y-11482357D01*
X12926309Y-11444262D01*
X12926309Y-11368071D01*
X12916786Y-11349024D01*
X12907262Y-11339500D01*
X12888214Y-11329976D01*
X12850119Y-11329976D01*
X12831071Y-11339500D01*
X12821548Y-11349024D01*
X12812024Y-11368071D01*
X12812024Y-11415690D01*
X12821548Y-11434738D01*
X12831071Y-11444262D01*
X12850119Y-11453786D01*
X12888214Y-11453786D01*
X12907262Y-11444262D01*
X12916786Y-11434738D01*
X12926309Y-11415690D01*
X13097738Y-11396643D02*
X13097738Y-11529976D01*
X13050119Y-11320452D02*
X13002500Y-11463309D01*
X13126309Y-11463309D01*
X13192976Y-11329976D02*
X13192976Y-11368071D01*
X13269167Y-11329976D02*
X13269167Y-11368071D01*
X13564405Y-11606167D02*
X13554881Y-11596643D01*
X13535833Y-11568071D01*
X13526309Y-11549024D01*
X13516786Y-11520452D01*
X13507262Y-11472833D01*
X13507262Y-11434738D01*
X13516786Y-11387119D01*
X13526309Y-11358548D01*
X13535833Y-11339500D01*
X13554881Y-11310928D01*
X13564405Y-11301405D01*
X13621548Y-11329976D02*
X13745357Y-11329976D01*
X13678690Y-11406167D01*
X13707262Y-11406167D01*
X13726309Y-11415690D01*
X13735833Y-11425214D01*
X13745357Y-11444262D01*
X13745357Y-11491881D01*
X13735833Y-11510928D01*
X13726309Y-11520452D01*
X13707262Y-11529976D01*
X13650119Y-11529976D01*
X13631071Y-11520452D01*
X13621548Y-11510928D01*
X13821548Y-11349024D02*
X13831071Y-11339500D01*
X13850119Y-11329976D01*
X13897738Y-11329976D01*
X13916786Y-11339500D01*
X13926309Y-11349024D01*
X13935833Y-11368071D01*
X13935833Y-11387119D01*
X13926309Y-11415690D01*
X13812024Y-11529976D01*
X13935833Y-11529976D01*
X14173928Y-11529976D02*
X14173928Y-11329976D01*
X14259643Y-11529976D02*
X14259643Y-11425214D01*
X14250119Y-11406167D01*
X14231071Y-11396643D01*
X14202500Y-11396643D01*
X14183452Y-11406167D01*
X14173928Y-11415690D01*
X14383452Y-11529976D02*
X14364405Y-11520452D01*
X14354881Y-11510928D01*
X14345357Y-11491881D01*
X14345357Y-11434738D01*
X14354881Y-11415690D01*
X14364405Y-11406167D01*
X14383452Y-11396643D01*
X14412024Y-11396643D01*
X14431071Y-11406167D01*
X14440595Y-11415690D01*
X14450119Y-11434738D01*
X14450119Y-11491881D01*
X14440595Y-11510928D01*
X14431071Y-11520452D01*
X14412024Y-11529976D01*
X14383452Y-11529976D01*
X14564405Y-11529976D02*
X14545357Y-11520452D01*
X14535833Y-11501405D01*
X14535833Y-11329976D01*
X14716786Y-11520452D02*
X14697738Y-11529976D01*
X14659643Y-11529976D01*
X14640595Y-11520452D01*
X14631071Y-11501405D01*
X14631071Y-11425214D01*
X14640595Y-11406167D01*
X14659643Y-11396643D01*
X14697738Y-11396643D01*
X14716786Y-11406167D01*
X14726309Y-11425214D01*
X14726309Y-11444262D01*
X14631071Y-11463309D01*
X14802500Y-11520452D02*
X14821548Y-11529976D01*
X14859643Y-11529976D01*
X14878690Y-11520452D01*
X14888214Y-11501405D01*
X14888214Y-11491881D01*
X14878690Y-11472833D01*
X14859643Y-11463309D01*
X14831071Y-11463309D01*
X14812024Y-11453786D01*
X14802500Y-11434738D01*
X14802500Y-11425214D01*
X14812024Y-11406167D01*
X14831071Y-11396643D01*
X14859643Y-11396643D01*
X14878690Y-11406167D01*
X15126309Y-11453786D02*
X15278690Y-11453786D01*
X15202500Y-11529976D02*
X15202500Y-11377595D01*
X15507262Y-11329976D02*
X15640595Y-11329976D01*
X15554881Y-11529976D01*
X15859643Y-11520452D02*
X15878690Y-11529976D01*
X15916786Y-11529976D01*
X15935833Y-11520452D01*
X15945357Y-11501405D01*
X15945357Y-11491881D01*
X15935833Y-11472833D01*
X15916786Y-11463309D01*
X15888214Y-11463309D01*
X15869167Y-11453786D01*
X15859643Y-11434738D01*
X15859643Y-11425214D01*
X15869167Y-11406167D01*
X15888214Y-11396643D01*
X15916786Y-11396643D01*
X15935833Y-11406167D01*
X16059643Y-11529976D02*
X16040595Y-11520452D01*
X16031071Y-11501405D01*
X16031071Y-11329976D01*
X16164405Y-11529976D02*
X16145357Y-11520452D01*
X16135833Y-11510928D01*
X16126309Y-11491881D01*
X16126309Y-11434738D01*
X16135833Y-11415690D01*
X16145357Y-11406167D01*
X16164405Y-11396643D01*
X16192976Y-11396643D01*
X16212024Y-11406167D01*
X16221548Y-11415690D01*
X16231071Y-11434738D01*
X16231071Y-11491881D01*
X16221548Y-11510928D01*
X16212024Y-11520452D01*
X16192976Y-11529976D01*
X16164405Y-11529976D01*
X16288214Y-11396643D02*
X16364405Y-11396643D01*
X16316786Y-11329976D02*
X16316786Y-11501405D01*
X16326309Y-11520452D01*
X16345357Y-11529976D01*
X16364405Y-11529976D01*
X16421548Y-11520452D02*
X16440595Y-11529976D01*
X16478690Y-11529976D01*
X16497738Y-11520452D01*
X16507262Y-11501405D01*
X16507262Y-11491881D01*
X16497738Y-11472833D01*
X16478690Y-11463309D01*
X16450119Y-11463309D01*
X16431071Y-11453786D01*
X16421548Y-11434738D01*
X16421548Y-11425214D01*
X16431071Y-11406167D01*
X16450119Y-11396643D01*
X16478690Y-11396643D01*
X16497738Y-11406167D01*
X16573928Y-11606167D02*
X16583452Y-11596643D01*
X16602500Y-11568071D01*
X16612024Y-11549024D01*
X16621548Y-11520452D01*
X16631071Y-11472833D01*
X16631071Y-11434738D01*
X16621548Y-11387119D01*
X16612024Y-11358548D01*
X16602500Y-11339500D01*
X16583452Y-11310928D01*
X16573928Y-11301405D01*
D16*
X9933000Y-11763000D02*
X9992500Y-11703500D01*
X9933000Y-11644000D01*
X9873500Y-11703500D01*
X9933000Y-11763000D01*
D11*
X10354881Y-11793976D02*
X10240595Y-11793976D01*
X10297738Y-11793976D02*
X10297738Y-11593976D01*
X10278690Y-11622548D01*
X10259643Y-11641595D01*
X10240595Y-11651119D01*
X10440595Y-11774928D02*
X10450119Y-11784452D01*
X10440595Y-11793976D01*
X10431071Y-11784452D01*
X10440595Y-11774928D01*
X10440595Y-11793976D01*
X10640595Y-11793976D02*
X10526310Y-11793976D01*
X10583452Y-11793976D02*
X10583452Y-11593976D01*
X10564405Y-11622548D01*
X10545357Y-11641595D01*
X10526310Y-11651119D01*
X10735833Y-11793976D02*
X10773929Y-11793976D01*
X10792976Y-11784452D01*
X10802500Y-11774928D01*
X10821548Y-11746357D01*
X10831071Y-11708262D01*
X10831071Y-11632071D01*
X10821548Y-11613024D01*
X10812024Y-11603500D01*
X10792976Y-11593976D01*
X10754881Y-11593976D01*
X10735833Y-11603500D01*
X10726310Y-11613024D01*
X10716786Y-11632071D01*
X10716786Y-11679690D01*
X10726310Y-11698738D01*
X10735833Y-11708262D01*
X10754881Y-11717786D01*
X10792976Y-11717786D01*
X10812024Y-11708262D01*
X10821548Y-11698738D01*
X10831071Y-11679690D01*
X10954881Y-11593976D02*
X10973929Y-11593976D01*
X10992976Y-11603500D01*
X11002500Y-11613024D01*
X11012024Y-11632071D01*
X11021548Y-11670167D01*
X11021548Y-11717786D01*
X11012024Y-11755881D01*
X11002500Y-11774928D01*
X10992976Y-11784452D01*
X10973929Y-11793976D01*
X10954881Y-11793976D01*
X10935833Y-11784452D01*
X10926310Y-11774928D01*
X10916786Y-11755881D01*
X10907262Y-11717786D01*
X10907262Y-11670167D01*
X10916786Y-11632071D01*
X10926310Y-11613024D01*
X10935833Y-11603500D01*
X10954881Y-11593976D01*
X11107262Y-11793976D02*
X11107262Y-11660643D01*
X11107262Y-11679690D02*
X11116786Y-11670167D01*
X11135833Y-11660643D01*
X11164405Y-11660643D01*
X11183452Y-11670167D01*
X11192976Y-11689214D01*
X11192976Y-11793976D01*
X11192976Y-11689214D02*
X11202500Y-11670167D01*
X11221548Y-11660643D01*
X11250119Y-11660643D01*
X11269167Y-11670167D01*
X11278690Y-11689214D01*
X11278690Y-11793976D01*
X11373928Y-11793976D02*
X11373928Y-11660643D01*
X11373928Y-11679690D02*
X11383452Y-11670167D01*
X11402500Y-11660643D01*
X11431071Y-11660643D01*
X11450119Y-11670167D01*
X11459643Y-11689214D01*
X11459643Y-11793976D01*
X11459643Y-11689214D02*
X11469167Y-11670167D01*
X11488214Y-11660643D01*
X11516786Y-11660643D01*
X11535833Y-11670167D01*
X11545357Y-11689214D01*
X11545357Y-11793976D01*
X11935833Y-11584452D02*
X11764405Y-11841595D01*
X12192976Y-11593976D02*
X12212024Y-11593976D01*
X12231071Y-11603500D01*
X12240595Y-11613024D01*
X12250119Y-11632071D01*
X12259643Y-11670167D01*
X12259643Y-11717786D01*
X12250119Y-11755881D01*
X12240595Y-11774928D01*
X12231071Y-11784452D01*
X12212024Y-11793976D01*
X12192976Y-11793976D01*
X12173928Y-11784452D01*
X12164405Y-11774928D01*
X12154881Y-11755881D01*
X12145357Y-11717786D01*
X12145357Y-11670167D01*
X12154881Y-11632071D01*
X12164405Y-11613024D01*
X12173928Y-11603500D01*
X12192976Y-11593976D01*
X12345357Y-11774928D02*
X12354881Y-11784452D01*
X12345357Y-11793976D01*
X12335833Y-11784452D01*
X12345357Y-11774928D01*
X12345357Y-11793976D01*
X12478690Y-11593976D02*
X12497738Y-11593976D01*
X12516786Y-11603500D01*
X12526309Y-11613024D01*
X12535833Y-11632071D01*
X12545357Y-11670167D01*
X12545357Y-11717786D01*
X12535833Y-11755881D01*
X12526309Y-11774928D01*
X12516786Y-11784452D01*
X12497738Y-11793976D01*
X12478690Y-11793976D01*
X12459643Y-11784452D01*
X12450119Y-11774928D01*
X12440595Y-11755881D01*
X12431071Y-11717786D01*
X12431071Y-11670167D01*
X12440595Y-11632071D01*
X12450119Y-11613024D01*
X12459643Y-11603500D01*
X12478690Y-11593976D01*
X12716786Y-11660643D02*
X12716786Y-11793976D01*
X12669167Y-11584452D02*
X12621548Y-11727309D01*
X12745357Y-11727309D01*
X12907262Y-11593976D02*
X12869167Y-11593976D01*
X12850119Y-11603500D01*
X12840595Y-11613024D01*
X12821548Y-11641595D01*
X12812024Y-11679690D01*
X12812024Y-11755881D01*
X12821548Y-11774928D01*
X12831071Y-11784452D01*
X12850119Y-11793976D01*
X12888214Y-11793976D01*
X12907262Y-11784452D01*
X12916786Y-11774928D01*
X12926309Y-11755881D01*
X12926309Y-11708262D01*
X12916786Y-11689214D01*
X12907262Y-11679690D01*
X12888214Y-11670167D01*
X12850119Y-11670167D01*
X12831071Y-11679690D01*
X12821548Y-11689214D01*
X12812024Y-11708262D01*
X13021548Y-11793976D02*
X13059643Y-11793976D01*
X13078690Y-11784452D01*
X13088214Y-11774928D01*
X13107262Y-11746357D01*
X13116786Y-11708262D01*
X13116786Y-11632071D01*
X13107262Y-11613024D01*
X13097738Y-11603500D01*
X13078690Y-11593976D01*
X13040595Y-11593976D01*
X13021548Y-11603500D01*
X13012024Y-11613024D01*
X13002500Y-11632071D01*
X13002500Y-11679690D01*
X13012024Y-11698738D01*
X13021548Y-11708262D01*
X13040595Y-11717786D01*
X13078690Y-11717786D01*
X13097738Y-11708262D01*
X13107262Y-11698738D01*
X13116786Y-11679690D01*
X13192976Y-11593976D02*
X13192976Y-11632071D01*
X13269167Y-11593976D02*
X13269167Y-11632071D01*
X13564405Y-11870167D02*
X13554881Y-11860643D01*
X13535833Y-11832071D01*
X13526309Y-11813024D01*
X13516786Y-11784452D01*
X13507262Y-11736833D01*
X13507262Y-11698738D01*
X13516786Y-11651119D01*
X13526309Y-11622548D01*
X13535833Y-11603500D01*
X13554881Y-11574928D01*
X13564405Y-11565405D01*
X13631071Y-11613024D02*
X13640595Y-11603500D01*
X13659643Y-11593976D01*
X13707262Y-11593976D01*
X13726309Y-11603500D01*
X13735833Y-11613024D01*
X13745357Y-11632071D01*
X13745357Y-11651119D01*
X13735833Y-11679690D01*
X13621548Y-11793976D01*
X13745357Y-11793976D01*
X13983452Y-11793976D02*
X13983452Y-11593976D01*
X14069167Y-11793976D02*
X14069167Y-11689214D01*
X14059643Y-11670167D01*
X14040595Y-11660643D01*
X14012024Y-11660643D01*
X13992976Y-11670167D01*
X13983452Y-11679690D01*
X14192976Y-11793976D02*
X14173928Y-11784452D01*
X14164405Y-11774928D01*
X14154881Y-11755881D01*
X14154881Y-11698738D01*
X14164405Y-11679690D01*
X14173928Y-11670167D01*
X14192976Y-11660643D01*
X14221548Y-11660643D01*
X14240595Y-11670167D01*
X14250119Y-11679690D01*
X14259643Y-11698738D01*
X14259643Y-11755881D01*
X14250119Y-11774928D01*
X14240595Y-11784452D01*
X14221548Y-11793976D01*
X14192976Y-11793976D01*
X14373928Y-11793976D02*
X14354881Y-11784452D01*
X14345357Y-11765405D01*
X14345357Y-11593976D01*
X14526309Y-11784452D02*
X14507262Y-11793976D01*
X14469167Y-11793976D01*
X14450119Y-11784452D01*
X14440595Y-11765405D01*
X14440595Y-11689214D01*
X14450119Y-11670167D01*
X14469167Y-11660643D01*
X14507262Y-11660643D01*
X14526309Y-11670167D01*
X14535833Y-11689214D01*
X14535833Y-11708262D01*
X14440595Y-11727309D01*
X14612024Y-11784452D02*
X14631071Y-11793976D01*
X14669167Y-11793976D01*
X14688214Y-11784452D01*
X14697738Y-11765405D01*
X14697738Y-11755881D01*
X14688214Y-11736833D01*
X14669167Y-11727309D01*
X14640595Y-11727309D01*
X14621548Y-11717786D01*
X14612024Y-11698738D01*
X14612024Y-11689214D01*
X14621548Y-11670167D01*
X14640595Y-11660643D01*
X14669167Y-11660643D01*
X14688214Y-11670167D01*
X14764405Y-11870167D02*
X14773928Y-11860643D01*
X14792976Y-11832071D01*
X14802500Y-11813024D01*
X14812024Y-11784452D01*
X14821548Y-11736833D01*
X14821548Y-11698738D01*
X14812024Y-11651119D01*
X14802500Y-11622548D01*
X14792976Y-11603500D01*
X14773928Y-11574928D01*
X14764405Y-11565405D01*
M02*
