%TF.GenerationSoftware,KiCad,Pcbnew,(6.0.6)*%
%TF.CreationDate,2022-07-11T15:05:09+02:00*%
%TF.ProjectId,ZXSpectrumFPGAShield,5a585370-6563-4747-9275-6d4650474153,rev?*%
%TF.SameCoordinates,Original*%
%TF.FileFunction,Soldermask,Top*%
%TF.FilePolarity,Negative*%
%FSLAX46Y46*%
G04 Gerber Fmt 4.6, Leading zero omitted, Abs format (unit mm)*
G04 Created by KiCad (PCBNEW (6.0.6)) date 2022-07-11 15:05:09*
%MOMM*%
%LPD*%
G01*
G04 APERTURE LIST*
G04 Aperture macros list*
%AMRoundRect*
0 Rectangle with rounded corners*
0 $1 Rounding radius*
0 $2 $3 $4 $5 $6 $7 $8 $9 X,Y pos of 4 corners*
0 Add a 4 corners polygon primitive as box body*
4,1,4,$2,$3,$4,$5,$6,$7,$8,$9,$2,$3,0*
0 Add four circle primitives for the rounded corners*
1,1,$1+$1,$2,$3*
1,1,$1+$1,$4,$5*
1,1,$1+$1,$6,$7*
1,1,$1+$1,$8,$9*
0 Add four rect primitives between the rounded corners*
20,1,$1+$1,$2,$3,$4,$5,0*
20,1,$1+$1,$4,$5,$6,$7,0*
20,1,$1+$1,$6,$7,$8,$9,0*
20,1,$1+$1,$8,$9,$2,$3,0*%
G04 Aperture macros list end*
%ADD10C,1.600000*%
%ADD11O,1.600000X1.600000*%
%ADD12R,1.700000X1.700000*%
%ADD13O,1.700000X1.700000*%
%ADD14RoundRect,0.250000X-0.620000X-0.845000X0.620000X-0.845000X0.620000X0.845000X-0.620000X0.845000X0*%
%ADD15O,1.740000X2.190000*%
%ADD16R,1.600000X1.600000*%
%ADD17O,2.000000X3.500000*%
%ADD18O,4.000000X2.000000*%
%ADD19C,1.100000*%
%ADD20O,2.300000X1.800000*%
%ADD21O,2.300000X2.000000*%
%ADD22R,1.050000X1.500000*%
%ADD23O,1.050000X1.500000*%
%ADD24C,3.200000*%
G04 APERTURE END LIST*
D10*
%TO.C,R10*%
X137592000Y-64186000D03*
D11*
X137592000Y-56566000D03*
%TD*%
D10*
%TO.C,R9*%
X134290000Y-83236000D03*
D11*
X141910000Y-83236000D03*
%TD*%
D10*
%TO.C,R8*%
X134290000Y-79680000D03*
D11*
X141910000Y-79680000D03*
%TD*%
D12*
%TO.C,J1*%
X127940000Y-97460000D03*
D13*
X130480000Y-97460000D03*
X133020000Y-97460000D03*
X135560000Y-97460000D03*
X138100000Y-97460000D03*
X140640000Y-97460000D03*
X143180000Y-97460000D03*
X145720000Y-97460000D03*
%TD*%
D12*
%TO.C,J3*%
X150800000Y-97460000D03*
D13*
X153340000Y-97460000D03*
X155880000Y-97460000D03*
X158420000Y-97460000D03*
X160960000Y-97460000D03*
X163500000Y-97460000D03*
%TD*%
D12*
%TO.C,J2*%
X118796000Y-49200000D03*
D13*
X121336000Y-49200000D03*
X123876000Y-49200000D03*
X126416000Y-49200000D03*
X128956000Y-49200000D03*
X131496000Y-49200000D03*
X134036000Y-49200000D03*
X136576000Y-49200000D03*
X139116000Y-49200000D03*
X141656000Y-49200000D03*
%TD*%
D12*
%TO.C,J4*%
X145720000Y-49200000D03*
D13*
X148260000Y-49200000D03*
X150800000Y-49200000D03*
X153340000Y-49200000D03*
X155880000Y-49200000D03*
X158420000Y-49200000D03*
X160960000Y-49200000D03*
X163500000Y-49200000D03*
%TD*%
D10*
%TO.C,R1*%
X112446000Y-62916000D03*
D11*
X120066000Y-62916000D03*
%TD*%
D14*
%TO.C,LS1*%
X127178000Y-55824000D03*
D15*
X129718000Y-55824000D03*
%TD*%
D10*
%TO.C,R4*%
X134290000Y-90348000D03*
D11*
X141910000Y-90348000D03*
%TD*%
D10*
%TO.C,R6*%
X148260000Y-60630000D03*
D11*
X148260000Y-53010000D03*
%TD*%
D10*
%TO.C,C1*%
X122666000Y-62408000D03*
D11*
X130166000Y-62408000D03*
%TD*%
D16*
%TO.C,J8*%
X107326000Y-55747000D03*
D10*
X109926000Y-55747000D03*
X105226000Y-55747000D03*
X112026000Y-55747000D03*
X105226000Y-58547000D03*
X112026000Y-58547000D03*
D17*
X101776000Y-52897000D03*
X115476000Y-52897000D03*
D18*
X108626000Y-52097000D03*
%TD*%
D19*
%TO.C,J6*%
X160000000Y-73580000D03*
X160000000Y-78580000D03*
D20*
X156000000Y-78380000D03*
X156000000Y-73780000D03*
D21*
X163500000Y-78830000D03*
X163500000Y-73330000D03*
%TD*%
D10*
%TO.C,R7*%
X144704000Y-60630000D03*
D11*
X144704000Y-53010000D03*
%TD*%
D10*
%TO.C,C2*%
X141148000Y-61352000D03*
X141148000Y-56352000D03*
%TD*%
D16*
%TO.C,D1*%
X134290000Y-53264000D03*
D11*
X141910000Y-53264000D03*
%TD*%
D22*
%TO.C,Q1*%
X120066000Y-57180000D03*
D23*
X121336000Y-57180000D03*
X122606000Y-57180000D03*
%TD*%
D10*
%TO.C,R2*%
X141910000Y-86792000D03*
D11*
X134290000Y-86792000D03*
%TD*%
D10*
%TO.C,R5*%
X148260000Y-70790000D03*
D11*
X148260000Y-63170000D03*
%TD*%
D10*
%TO.C,C3*%
X152324000Y-78116000D03*
X152324000Y-73116000D03*
%TD*%
%TO.C,C4*%
X144704000Y-70730000D03*
D11*
X144704000Y-63230000D03*
%TD*%
D19*
%TO.C,J5*%
X160000000Y-86200000D03*
X160000000Y-81200000D03*
D20*
X156000000Y-86000000D03*
X156000000Y-81400000D03*
D21*
X163500000Y-80950000D03*
X163500000Y-86450000D03*
%TD*%
D24*
%TO.C,MH2*%
X113970000Y-97460000D03*
%TD*%
D11*
%TO.C,R3*%
X151816000Y-53010000D03*
D10*
X151816000Y-60630000D03*
%TD*%
D24*
%TO.C,MH3*%
X166040000Y-64440000D03*
%TD*%
%TO.C,MH4*%
X166040000Y-92380000D03*
%TD*%
M02*
